Titillium Math Sans Pro Zanichelli-Black Italic.ufo
<glyph name="uni00AD" format="2">
  <advance width="0"/>
  <unicode hex="00AD"/>
  <note>
uni00AD
</note>
  <outline>
    <contour>
      <point x="135" y="194" type="line"/>
      <point x="173" y="374" type="line"/>
      <point x="-125" y="374" type="line"/>
      <point x="-163" y="194" type="line"/>
    </contour>
  </outline>
</glyph>
<glyph name="uni00B9" format="2">
  <advance width="271"/>
  <unicode hex="00B9"/>
  <note>
uni00B9
</note>
  <outline>
    <contour>
      <point x="279" y="407" type="line"/>
      <point x="350" y="738" type="line"/>
      <point x="226" y="738" type="line"/>
      <point x="85" y="665" type="line"/>
      <point x="104" y="552" type="line"/>
      <point x="169" y="582" type="line"/>
      <point x="131" y="407" type="line"/>
    </contour>
  </outline>
</glyph>
<glyph name="uni013B" format="2">
  <advance width="495"/>
  <unicode hex="013B"/>
  <note>
uni013B
</note>
  <outline>
    <contour>
      <point x="366" y="710" type="line"/>
      <point x="137" y="710" type="line"/>
      <point x="-15" y="0" type="line"/>
      <point x="426" y="0" type="line"/>
      <point x="467" y="190" type="line"/>
      <point x="255" y="190" type="line"/>
    </contour>
    <contour>
      <point x="131" y="-54" type="line"/>
      <point x="19" y="-242" type="line"/>
      <point x="139" y="-327" type="line"/>
      <point x="276" y="-160" type="line"/>
    </contour>
  </outline>
</glyph>
<glyph name="uni022E" format="2">
  <advance width="731"/>
  <unicode hex="022E"/>
  <note>
uni022E
</note>
  <outline>
    <contour>
      <point x="570" y="757" type="line"/>
      <point x="602" y="911" type="line"/>
      <point x="398" y="911" type="line"/>
      <point x="366" y="757" type="line"/>
    </contour>
    <contour>
      <point x="34" y="253" type="curve" smooth="yes"/>
      <point x="34" y="48"/>
      <point x="168" y="-14"/>
      <point x="338" y="-14" type="curve" smooth="yes"/>
      <point x="628" y="-14"/>
      <point x="737" y="255"/>
      <point x="737" y="455" type="curve" smooth="yes"/>
      <point x="737" y="660"/>
      <point x="609" y="726"/>
      <point x="439" y="726" type="curve" smooth="yes"/>
      <point x="149" y="726"/>
      <point x="34" y="453"/>
    </contour>
    <contour>
      <point x="275" y="253" type="curve" smooth="yes"/>
      <point x="275" y="368"/>
      <point x="322" y="538"/>
      <point x="422" y="538" type="curve" smooth="yes"/>
      <point x="467" y="538"/>
      <point x="495" y="517"/>
      <point x="495" y="466" type="curve" smooth="yes"/>
      <point x="495" y="351"/>
      <point x="450" y="175"/>
      <point x="350" y="175" type="curve" smooth="yes"/>
      <point x="305" y="175"/>
      <point x="275" y="197"/>
    </contour>
  </outline>
</glyph>
<glyph name="uni0232" format="2">
  <advance width="583"/>
  <unicode hex="0232"/>
  <note>
uni0232
</note>
  <outline>
    <contour>
      <point x="548" y="766" type="line"/>
      <point x="576" y="896" type="line"/>
      <point x="249" y="896" type="line"/>
      <point x="221" y="766" type="line"/>
    </contour>
    <contour>
      <point x="308" y="710" type="line"/>
      <point x="85" y="710" type="line"/>
      <point x="172" y="240" type="line"/>
      <point x="124" y="0" type="line"/>
      <point x="351" y="0" type="line"/>
      <point x="400" y="240" type="line"/>
      <point x="692" y="710" type="line"/>
      <point x="448" y="710" type="line"/>
      <point x="332" y="455" type="line"/>
    </contour>
  </outline>
</glyph>
<glyph name="uni0237" format="2">
  <advance width="284"/>
  <unicode hex="0237"/>
  <note>
uni0237
</note>
  <outline>
    <contour>
      <point x="216" y="83" type="curve" smooth="yes"/>
      <point x="309" y="520" type="line"/>
      <point x="89" y="520" type="line"/>
      <point x="-5" y="76" type="line" smooth="yes"/>
      <point x="-20" y="4"/>
      <point x="-30" y="-2"/>
      <point x="-117" y="-40" type="curve"/>
      <point x="-83" y="-210" type="line"/>
      <point x="125" y="-148"/>
      <point x="173" y="-118"/>
    </contour>
  </outline>
</glyph>
<glyph name="uni0308" format="2">
  <advance width="0"/>
  <unicode hex="0308"/>
  <note>
uni0308
</note>
  <outline>
    <contour>
      <point x="466" y="576" type="line"/>
      <point x="498" y="730" type="line"/>
      <point x="324" y="730" type="line"/>
      <point x="292" y="576" type="line"/>
    </contour>
    <contour>
      <point x="100" y="730" type="line"/>
      <point x="68" y="576" type="line"/>
      <point x="242" y="576" type="line"/>
      <point x="274" y="730" type="line"/>
    </contour>
  </outline>
</glyph>
<glyph name="uni030C" format="2">
  <advance width="0"/>
  <unicode hex="030C"/>
  <note>
uni030C
</note>
  <outline>
    <contour>
      <point x="491" y="756" type="line"/>
      <point x="320" y="756" type="line"/>
      <point x="271" y="673" type="line"/>
      <point x="258" y="756" type="line"/>
      <point x="105" y="756" type="line"/>
      <point x="148" y="576" type="line"/>
      <point x="372" y="576" type="line"/>
    </contour>
  </outline>
</glyph>
<glyph name="uni0312" format="2">
  <advance width="0"/>
  <unicode hex="0312"/>
  <note>
uni0312
</note>
  <outline>
    <contour>
      <point x="224" y="794" type="line"/>
      <point x="83" y="652" type="line"/>
      <point x="203" y="568" type="line"/>
      <point x="320" y="725" type="line"/>
    </contour>
  </outline>
</glyph>
<glyph name="uni0313" format="2">
  <advance width="0"/>
  <unicode hex="0313"/>
  <note>
uni0313
</note>
  <outline>
    <contour>
      <point x="176" y="568" type="line"/>
      <point x="317" y="710" type="line"/>
      <point x="197" y="794" type="line"/>
      <point x="80" y="637" type="line"/>
    </contour>
  </outline>
</glyph>
<glyph name="uni0326" format="2">
  <advance width="0"/>
  <unicode hex="0326"/>
  <note>
uni0326
</note>
  <outline>
    <contour>
      <point x="13" y="-327" type="line"/>
      <point x="150" y="-160" type="line"/>
      <point x="5" y="-54" type="line"/>
      <point x="-107" y="-242" type="line"/>
    </contour>
  </outline>
</glyph>
<glyph name="uni0331" format="2">
  <advance width="0"/>
  <unicode hex="0331"/>
  <note>
uni0331
</note>
  <outline>
    <contour>
      <point x="230" y="-194" type="line"/>
      <point x="258" y="-64" type="line"/>
      <point x="-69" y="-64" type="line"/>
      <point x="-97" y="-194" type="line"/>
    </contour>
  </outline>
</glyph>
<glyph name="uni0335" format="2">
  <advance width="0"/>
  <unicode hex="0335"/>
  <note>
uni0335
</note>
  <outline>
    <contour>
      <point x="354" y="566" type="line"/>
      <point x="378" y="682" type="line"/>
      <point x="12" y="682" type="line"/>
      <point x="-12" y="566" type="line"/>
    </contour>
  </outline>
</glyph>
<glyph name="uni0338" format="2">
  <advance width="0"/>
  <unicode hex="0338"/>
  <note>
uni0338
</note>
  <outline>
    <contour>
      <point x="0" y="-68" type="line"/>
      <point x="550" y="707" type="line"/>
      <point x="477" y="760" type="line"/>
      <point x="-73" y="-15" type="line"/>
    </contour>
  </outline>
</glyph>
<glyph name="uni1E5F" format="2">
  <advance width="367"/>
  <unicode hex="1E5F"/>
  <note>
uni1E5F
</note>
  <outline>
    <contour>
      <point x="276" y="453" type="curve"/>
      <point x="282" y="520" type="line"/>
      <point x="86" y="520" type="line"/>
      <point x="-24" y="0" type="line"/>
      <point x="194" y="0" type="line"/>
      <point x="255" y="289" type="line"/>
      <point x="255" y="289"/>
      <point x="314" y="306"/>
      <point x="361" y="316" type="curve"/>
      <point x="413" y="535" type="line"/>
      <point x="340" y="519"/>
      <point x="276" y="453"/>
    </contour>
    <contour>
      <point x="-83" y="-64" type="line"/>
      <point x="-111" y="-194" type="line"/>
      <point x="216" y="-194" type="line"/>
      <point x="244" y="-64" type="line"/>
    </contour>
  </outline>
</glyph>
<glyph name="uni1E93" format="2">
  <advance width="512"/>
  <unicode hex="1E93"/>
  <note>
uni1E93
</note>
  <outline>
    <contour>
      <point x="489" y="335" type="line"/>
      <point x="528" y="520" type="line"/>
      <point x="84" y="520" type="line"/>
      <point x="45" y="340" type="line"/>
      <point x="195" y="340" type="line"/>
      <point x="192" y="325" type="line"/>
      <point x="10" y="185" type="line"/>
      <point x="-29" y="0" type="line"/>
      <point x="437" y="0" type="line"/>
      <point x="477" y="190" type="line"/>
      <point x="302" y="190" type="line"/>
      <point x="306" y="205" type="line"/>
    </contour>
    <contour>
      <point x="99" y="-64" type="line"/>
      <point x="67" y="-218" type="line"/>
      <point x="271" y="-218" type="line"/>
      <point x="303" y="-64" type="line"/>
    </contour>
  </outline>
</glyph>
<glyph name="uni1ECA" format="2">
  <advance width="309"/>
  <unicode hex="1ECA"/>
  <note>
uni1ECA
</note>
  <outline>
    <contour>
      <point x="214" y="0" type="line"/>
      <point x="365" y="710" type="line"/>
      <point x="136" y="710" type="line"/>
      <point x="-15" y="0" type="line"/>
    </contour>
    <contour>
      <point x="-12" y="-64" type="line"/>
      <point x="-44" y="-218" type="line"/>
      <point x="160" y="-218" type="line"/>
      <point x="192" y="-64" type="line"/>
    </contour>
  </outline>
</glyph>
<glyph name="second" format="2">
  <advance width="596"/>
  <unicode hex="2033"/>
  <note>
second
</note>
  <outline>
    <contour>
      <point x="214" y="363" type="line"/>
      <point x="377" y="673" type="line"/>
      <point x="139" y="673" type="line"/>
      <point x="38" y="363" type="line"/>
    </contour>
    <contour>
      <point x="429" y="673" type="line"/>
      <point x="328" y="363" type="line"/>
      <point x="504" y="363" type="line"/>
      <point x="667" y="673" type="line"/>
    </contour>
  </outline>
</glyph>
<glyph name="uni2074" format="2">
  <advance width="332"/>
  <unicode hex="2074"/>
  <note>
uni2074
</note>
  <outline>
    <contour>
      <point x="72" y="537" type="line"/>
      <point x="53" y="448" type="line"/>
      <point x="209" y="448" type="line"/>
      <point x="201" y="407" type="line"/>
      <point x="338" y="407" type="line"/>
      <point x="346" y="448" type="line"/>
      <point x="359" y="448" type="line"/>
      <point x="382" y="553" type="line"/>
      <point x="369" y="553" type="line"/>
      <point x="383" y="622" type="line"/>
      <point x="256" y="605" type="line"/>
      <point x="245" y="553" type="line"/>
      <point x="208" y="553" type="line"/>
      <point x="315" y="738" type="line"/>
      <point x="173" y="738" type="line"/>
    </contour>
  </outline>
</glyph>
<glyph name="uni2077" format="2">
  <advance width="298"/>
  <unicode hex="2077"/>
  <note>
uni2077
</note>
  <outline>
    <contour>
      <point x="363" y="622" type="line"/>
      <point x="387" y="738" type="line"/>
      <point x="114" y="738" type="line"/>
      <point x="89" y="618" type="line"/>
      <point x="210" y="618" type="line"/>
      <point x="207" y="603" type="line"/>
      <point x="74" y="438" type="line"/>
      <point x="180" y="377" type="line"/>
    </contour>
  </outline>
</glyph>
<glyph name="uni2116" format="2">
  <advance width="1149"/>
  <unicode hex="2116"/>
  <note>
uni2116
</note>
  <outline>
    <contour>
      <point x="458" y="406" type="line"/>
      <point x="353" y="710" type="line"/>
      <point x="137" y="710" type="line"/>
      <point x="-15" y="0" type="line"/>
      <point x="212" y="0" type="line"/>
      <point x="280" y="313" type="line"/>
      <point x="304" y="313" type="line"/>
      <point x="405" y="0" type="line"/>
      <point x="621" y="0" type="line"/>
      <point x="773" y="710" type="line"/>
      <point x="546" y="710" type="line"/>
      <point x="482" y="406" type="line"/>
    </contour>
    <contour>
      <point x="754" y="336" type="line"/>
      <point x="728" y="216" type="line"/>
      <point x="1099" y="216" type="line"/>
      <point x="1125" y="336" type="line"/>
    </contour>
    <contour>
      <point x="781" y="511" type="curve" smooth="yes"/>
      <point x="781" y="419"/>
      <point x="844" y="371"/>
      <point x="957" y="371" type="curve" smooth="yes"/>
      <point x="1163" y="371"/>
      <point x="1188" y="516"/>
      <point x="1188" y="584" type="curve" smooth="yes"/>
      <point x="1188" y="677"/>
      <point x="1126" y="726"/>
      <point x="1013" y="726" type="curve" smooth="yes"/>
      <point x="809" y="726"/>
      <point x="781" y="581"/>
    </contour>
    <contour>
      <point x="945" y="521" type="curve" smooth="yes"/>
      <point x="945" y="546"/>
      <point x="952" y="606"/>
      <point x="997" y="606" type="curve" smooth="yes"/>
      <point x="1016" y="606"/>
      <point x="1026" y="599"/>
      <point x="1026" y="579" type="curve" smooth="yes"/>
      <point x="1026" y="552"/>
      <point x="1011" y="492"/>
      <point x="973" y="492" type="curve" smooth="yes"/>
      <point x="955" y="492"/>
      <point x="945" y="499"/>
    </contour>
  </outline>
</glyph>
<glyph name="uni2197" format="2">
  <advance width="661"/>
  <unicode hex="2197"/>
  <note>
uni2197
</note>
  <outline>
    <contour>
      <point x="417" y="203" type="line"/>
      <point x="610" y="203" type="line"/>
      <point x="715" y="700" type="line"/>
      <point x="218" y="701" type="line"/>
      <point x="179" y="515" type="line"/>
      <point x="361" y="527" type="line"/>
      <point x="227" y="431" type="line"/>
      <point x="18" y="259" type="line"/>
      <point x="146" y="96" type="line"/>
      <point x="355" y="269" type="line"/>
      <point x="464" y="372" type="line"/>
    </contour>
  </outline>
</glyph>
<glyph name="uni2198" format="2">
  <advance width="660"/>
  <unicode hex="2198"/>
  <note>
uni2198
</note>
  <outline>
    <contour>
      <point x="453" y="330" type="line"/>
      <point x="390" y="431" type="line"/>
      <point x="254" y="604" type="line"/>
      <point x="57" y="441" type="line"/>
      <point x="193" y="269" type="line"/>
      <point x="286" y="173" type="line"/>
      <point x="109" y="184" type="line"/>
      <point x="70" y="-1" type="line"/>
      <point x="567" y="0" type="line"/>
      <point x="673" y="497" type="line"/>
      <point x="478" y="497" type="line"/>
    </contour>
  </outline>
</glyph>
<glyph name="uni2199" format="2">
  <advance width="663"/>
  <unicode hex="2199"/>
  <note>
uni2199
</note>
  <outline>
    <contour>
      <point x="473" y="269" type="line"/>
      <point x="683" y="441" type="line"/>
      <point x="555" y="604" type="line"/>
      <point x="345" y="431" type="line"/>
      <point x="236" y="321" type="line"/>
      <point x="285" y="497" type="line"/>
      <point x="90" y="497" type="line"/>
      <point x="-15" y="0" type="line"/>
      <point x="482" y="-1" type="line"/>
      <point x="521" y="184" type="line"/>
      <point x="339" y="173" type="line"/>
    </contour>
  </outline>
</glyph>
<glyph name="uni2461" format="2">
  <advance width="860"/>
  <unicode hex="2461"/>
  <note>
uni2461
</note>
  <outline>
    <contour>
      <point x="374" y="-40" type="curve" smooth="yes"/>
      <point x="639" y="-40"/>
      <point x="856" y="187"/>
      <point x="856" y="423" type="curve" smooth="yes"/>
      <point x="856" y="606"/>
      <point x="727" y="740"/>
      <point x="523" y="740" type="curve" smooth="yes"/>
      <point x="254" y="740"/>
      <point x="41" y="510"/>
      <point x="43" y="274" type="curve" smooth="yes"/>
      <point x="45" y="92"/>
      <point x="172" y="-40"/>
    </contour>
    <contour>
      <point x="86" y="275" type="curve" smooth="yes"/>
      <point x="86" y="489"/>
      <point x="281" y="701"/>
      <point x="525" y="701" type="curve" smooth="yes"/>
      <point x="702" y="701"/>
      <point x="815" y="585"/>
      <point x="815" y="422" type="curve" smooth="yes"/>
      <point x="815" y="205"/>
      <point x="614" y="-1"/>
      <point x="376" y="-1" type="curve" smooth="yes"/>
      <point x="198" y="-1"/>
      <point x="86" y="113"/>
    </contour>
    <contour>
      <point x="291" y="283" type="line"/>
      <point x="268" y="173" type="line"/>
      <point x="560" y="173" type="line"/>
      <point x="585" y="293" type="line"/>
      <point x="466" y="293" type="line"/>
      <point x="521" y="323" type="line" smooth="yes"/>
      <point x="581" y="355"/>
      <point x="617" y="389"/>
      <point x="617" y="454" type="curve" smooth="yes"/>
      <point x="617" y="506"/>
      <point x="577" y="547"/>
      <point x="489" y="547" type="curve" smooth="yes"/>
      <point x="440" y="547"/>
      <point x="346" y="535"/>
      <point x="346" y="535" type="curve"/>
      <point x="326" y="411" type="line"/>
      <point x="326" y="411"/>
      <point x="374" y="417"/>
      <point x="407" y="417" type="curve" smooth="yes"/>
      <point x="430" y="417"/>
      <point x="436" y="413"/>
      <point x="436" y="401" type="curve" smooth="yes"/>
      <point x="436" y="380"/>
      <point x="420" y="366"/>
      <point x="381" y="340" type="curve" smooth="yes"/>
    </contour>
  </outline>
</glyph>
<glyph name="uni2462" format="2">
  <advance width="860"/>
  <unicode hex="2462"/>
  <note>
uni2462
</note>
  <outline>
    <contour>
      <point x="374" y="-40" type="curve" smooth="yes"/>
      <point x="639" y="-40"/>
      <point x="856" y="187"/>
      <point x="856" y="423" type="curve" smooth="yes"/>
      <point x="856" y="606"/>
      <point x="727" y="740"/>
      <point x="523" y="740" type="curve" smooth="yes"/>
      <point x="254" y="740"/>
      <point x="41" y="510"/>
      <point x="43" y="274" type="curve" smooth="yes"/>
      <point x="45" y="92"/>
      <point x="172" y="-40"/>
    </contour>
    <contour>
      <point x="86" y="275" type="curve" smooth="yes"/>
      <point x="86" y="489"/>
      <point x="281" y="701"/>
      <point x="525" y="701" type="curve" smooth="yes"/>
      <point x="702" y="701"/>
      <point x="815" y="585"/>
      <point x="815" y="422" type="curve" smooth="yes"/>
      <point x="815" y="205"/>
      <point x="614" y="-1"/>
      <point x="376" y="-1" type="curve" smooth="yes"/>
      <point x="198" y="-1"/>
      <point x="86" y="113"/>
    </contour>
    <contour>
      <point x="288" y="283" type="curve"/>
      <point x="256" y="174" type="line"/>
      <point x="256" y="174"/>
      <point x="351" y="159"/>
      <point x="410" y="159" type="curve" smooth="yes"/>
      <point x="525" y="159"/>
      <point x="594" y="199"/>
      <point x="594" y="296" type="curve" smooth="yes"/>
      <point x="594" y="324"/>
      <point x="578" y="348"/>
      <point x="549" y="360" type="curve"/>
      <point x="594" y="378"/>
      <point x="613" y="409"/>
      <point x="613" y="457" type="curve" smooth="yes"/>
      <point x="613" y="517"/>
      <point x="563" y="548"/>
      <point x="484" y="548" type="curve" smooth="yes"/>
      <point x="435" y="548"/>
      <point x="338" y="539"/>
      <point x="338" y="539" type="curve"/>
      <point x="322" y="428" type="line"/>
      <point x="322" y="428"/>
      <point x="404" y="435"/>
      <point x="423" y="435" type="curve" smooth="yes"/>
      <point x="441" y="435"/>
      <point x="448" y="434"/>
      <point x="448" y="422" type="curve" smooth="yes"/>
      <point x="448" y="409"/>
      <point x="437" y="405"/>
      <point x="422" y="405" type="curve" smooth="yes"/>
      <point x="343" y="405" type="line"/>
      <point x="321" y="306" type="line"/>
      <point x="401" y="306" type="line" smooth="yes"/>
      <point x="417" y="306"/>
      <point x="423" y="304"/>
      <point x="423" y="293" type="curve" smooth="yes"/>
      <point x="423" y="276"/>
      <point x="407" y="276"/>
      <point x="388" y="276" type="curve" smooth="yes"/>
      <point x="371" y="276"/>
      <point x="288" y="283"/>
    </contour>
  </outline>
</glyph>
<glyph name="uni2463" format="2">
  <advance width="860"/>
  <unicode hex="2463"/>
  <note>
uni2463
</note>
  <outline>
    <contour>
      <point x="374" y="-40" type="curve" smooth="yes"/>
      <point x="639" y="-40"/>
      <point x="856" y="187"/>
      <point x="856" y="423" type="curve" smooth="yes"/>
      <point x="856" y="606"/>
      <point x="727" y="740"/>
      <point x="523" y="740" type="curve" smooth="yes"/>
      <point x="254" y="740"/>
      <point x="41" y="510"/>
      <point x="43" y="274" type="curve" smooth="yes"/>
      <point x="45" y="92"/>
      <point x="172" y="-40"/>
    </contour>
    <contour>
      <point x="86" y="275" type="curve" smooth="yes"/>
      <point x="86" y="489"/>
      <point x="281" y="701"/>
      <point x="525" y="701" type="curve" smooth="yes"/>
      <point x="702" y="701"/>
      <point x="815" y="585"/>
      <point x="815" y="422" type="curve" smooth="yes"/>
      <point x="815" y="205"/>
      <point x="614" y="-1"/>
      <point x="376" y="-1" type="curve" smooth="yes"/>
      <point x="198" y="-1"/>
      <point x="86" y="113"/>
    </contour>
    <contour>
      <point x="268" y="316" type="line"/>
      <point x="247" y="218" type="line"/>
      <point x="418" y="218" type="line"/>
      <point x="409" y="173" type="line"/>
      <point x="560" y="173" type="line"/>
      <point x="569" y="218" type="line"/>
      <point x="583" y="218" type="line"/>
      <point x="609" y="334" type="line"/>
      <point x="594" y="334" type="line"/>
      <point x="610" y="410" type="line"/>
      <point x="470" y="391" type="line"/>
      <point x="458" y="334" type="line"/>
      <point x="417" y="334" type="line"/>
      <point x="535" y="537" type="line"/>
      <point x="379" y="537" type="line"/>
    </contour>
  </outline>
</glyph>
<glyph name="uni2464" format="2">
  <advance width="860"/>
  <unicode hex="2464"/>
  <note>
uni2464
</note>
  <outline>
    <contour>
      <point x="374" y="-40" type="curve" smooth="yes"/>
      <point x="639" y="-40"/>
      <point x="856" y="187"/>
      <point x="856" y="423" type="curve" smooth="yes"/>
      <point x="856" y="606"/>
      <point x="727" y="740"/>
      <point x="523" y="740" type="curve" smooth="yes"/>
      <point x="254" y="740"/>
      <point x="41" y="510"/>
      <point x="43" y="274" type="curve" smooth="yes"/>
      <point x="45" y="92"/>
      <point x="172" y="-40"/>
    </contour>
    <contour>
      <point x="86" y="275" type="curve" smooth="yes"/>
      <point x="86" y="489"/>
      <point x="281" y="701"/>
      <point x="525" y="701" type="curve" smooth="yes"/>
      <point x="702" y="701"/>
      <point x="815" y="585"/>
      <point x="815" y="422" type="curve" smooth="yes"/>
      <point x="815" y="205"/>
      <point x="614" y="-1"/>
      <point x="376" y="-1" type="curve" smooth="yes"/>
      <point x="198" y="-1"/>
      <point x="86" y="113"/>
    </contour>
    <contour>
      <point x="293" y="286" type="curve"/>
      <point x="259" y="172" type="line"/>
      <point x="259" y="172"/>
      <point x="353" y="159"/>
      <point x="416" y="159" type="curve" smooth="yes"/>
      <point x="546" y="159"/>
      <point x="608" y="214"/>
      <point x="608" y="302" type="curve" smooth="yes"/>
      <point x="608" y="379"/>
      <point x="557" y="402"/>
      <point x="492" y="402" type="curve" smooth="yes"/>
      <point x="468" y="402"/>
      <point x="447" y="398"/>
      <point x="430" y="394" type="curve"/>
      <point x="444" y="431" type="line"/>
      <point x="607" y="431" type="line"/>
      <point x="630" y="538" type="line"/>
      <point x="354" y="538" type="line"/>
      <point x="296" y="308" type="line"/>
      <point x="383" y="297" type="line"/>
      <point x="395" y="303"/>
      <point x="410" y="307"/>
      <point x="422" y="307" type="curve" smooth="yes"/>
      <point x="434" y="307"/>
      <point x="444" y="304"/>
      <point x="444" y="292" type="curve" smooth="yes"/>
      <point x="444" y="277"/>
      <point x="431" y="274"/>
      <point x="414" y="274" type="curve" smooth="yes"/>
      <point x="384" y="274"/>
      <point x="293" y="286"/>
    </contour>
  </outline>
</glyph>
<glyph name="uni2465" format="2">
  <advance width="860"/>
  <unicode hex="2465"/>
  <note>
uni2465
</note>
  <outline>
    <contour>
      <point x="374" y="-40" type="curve" smooth="yes"/>
      <point x="639" y="-40"/>
      <point x="856" y="187"/>
      <point x="856" y="423" type="curve" smooth="yes"/>
      <point x="856" y="606"/>
      <point x="727" y="740"/>
      <point x="523" y="740" type="curve" smooth="yes"/>
      <point x="254" y="740"/>
      <point x="41" y="510"/>
      <point x="43" y="274" type="curve" smooth="yes"/>
      <point x="45" y="92"/>
      <point x="172" y="-40"/>
    </contour>
    <contour>
      <point x="86" y="275" type="curve" smooth="yes"/>
      <point x="86" y="489"/>
      <point x="281" y="701"/>
      <point x="525" y="701" type="curve" smooth="yes"/>
      <point x="702" y="701"/>
      <point x="815" y="585"/>
      <point x="815" y="422" type="curve" smooth="yes"/>
      <point x="815" y="205"/>
      <point x="614" y="-1"/>
      <point x="376" y="-1" type="curve" smooth="yes"/>
      <point x="198" y="-1"/>
      <point x="86" y="113"/>
    </contour>
    <contour>
      <point x="275" y="312" type="curve" smooth="yes"/>
      <point x="275" y="214"/>
      <point x="326" y="159"/>
      <point x="429" y="159" type="curve" smooth="yes"/>
      <point x="541" y="159"/>
      <point x="600" y="226"/>
      <point x="600" y="307" type="curve" smooth="yes"/>
      <point x="600" y="370"/>
      <point x="558" y="407"/>
      <point x="500" y="407" type="curve" smooth="yes"/>
      <point x="472" y="407"/>
      <point x="451" y="403"/>
      <point x="435" y="393" type="curve"/>
      <point x="443" y="435"/>
      <point x="457" y="440"/>
      <point x="485" y="440" type="curve" smooth="yes"/>
      <point x="515" y="440"/>
      <point x="561" y="435"/>
      <point x="591" y="430" type="curve"/>
      <point x="624" y="536" type="line"/>
      <point x="624" y="536"/>
      <point x="557" y="548"/>
      <point x="504" y="548" type="curve" smooth="yes"/>
      <point x="314" y="548"/>
      <point x="275" y="394"/>
    </contour>
    <contour>
      <point x="414" y="285" type="curve" smooth="yes"/>
      <point x="414" y="292"/>
      <point x="415" y="299"/>
      <point x="417" y="307" type="curve"/>
      <point x="426" y="315"/>
      <point x="434" y="317"/>
      <point x="443" y="317" type="curve" smooth="yes"/>
      <point x="453" y="317"/>
      <point x="459" y="312"/>
      <point x="459" y="303" type="curve" smooth="yes"/>
      <point x="459" y="287"/>
      <point x="452" y="266"/>
      <point x="431" y="266" type="curve" smooth="yes"/>
      <point x="419" y="266"/>
      <point x="414" y="273"/>
    </contour>
  </outline>
</glyph>
<glyph name="uni2466" format="2">
  <advance width="860"/>
  <unicode hex="2466"/>
  <note>
uni2466
</note>
  <outline>
    <contour>
      <point x="374" y="-40" type="curve" smooth="yes"/>
      <point x="639" y="-40"/>
      <point x="856" y="187"/>
      <point x="856" y="423" type="curve" smooth="yes"/>
      <point x="856" y="606"/>
      <point x="727" y="740"/>
      <point x="523" y="740" type="curve" smooth="yes"/>
      <point x="254" y="740"/>
      <point x="41" y="510"/>
      <point x="43" y="274" type="curve" smooth="yes"/>
      <point x="45" y="92"/>
      <point x="172" y="-40"/>
    </contour>
    <contour>
      <point x="86" y="275" type="curve" smooth="yes"/>
      <point x="86" y="489"/>
      <point x="281" y="701"/>
      <point x="525" y="701" type="curve" smooth="yes"/>
      <point x="702" y="701"/>
      <point x="815" y="585"/>
      <point x="815" y="422" type="curve" smooth="yes"/>
      <point x="815" y="205"/>
      <point x="614" y="-1"/>
      <point x="376" y="-1" type="curve" smooth="yes"/>
      <point x="198" y="-1"/>
      <point x="86" y="113"/>
    </contour>
    <contour>
      <point x="446" y="389" type="line"/>
      <point x="300" y="207" type="line"/>
      <point x="416" y="140" type="line"/>
      <point x="618" y="410" type="line"/>
      <point x="644" y="537" type="line"/>
      <point x="344" y="537" type="line"/>
      <point x="316" y="405" type="line"/>
      <point x="449" y="405" type="line"/>
    </contour>
  </outline>
</glyph>
<glyph name="uni2467" format="2">
  <advance width="860"/>
  <unicode hex="2467"/>
  <note>
uni2467
</note>
  <outline>
    <contour>
      <point x="374" y="-40" type="curve" smooth="yes"/>
      <point x="639" y="-40"/>
      <point x="856" y="187"/>
      <point x="856" y="423" type="curve" smooth="yes"/>
      <point x="856" y="606"/>
      <point x="727" y="740"/>
      <point x="523" y="740" type="curve" smooth="yes"/>
      <point x="254" y="740"/>
      <point x="41" y="510"/>
      <point x="43" y="274" type="curve" smooth="yes"/>
      <point x="45" y="92"/>
      <point x="172" y="-40"/>
    </contour>
    <contour>
      <point x="86" y="275" type="curve" smooth="yes"/>
      <point x="86" y="489"/>
      <point x="281" y="701"/>
      <point x="525" y="701" type="curve" smooth="yes"/>
      <point x="702" y="701"/>
      <point x="815" y="585"/>
      <point x="815" y="422" type="curve" smooth="yes"/>
      <point x="815" y="205"/>
      <point x="614" y="-1"/>
      <point x="376" y="-1" type="curve" smooth="yes"/>
      <point x="198" y="-1"/>
      <point x="86" y="113"/>
    </contour>
    <contour>
      <point x="265" y="253" type="curve" smooth="yes"/>
      <point x="265" y="192"/>
      <point x="312" y="159"/>
      <point x="421" y="159" type="curve" smooth="yes"/>
      <point x="522" y="159"/>
      <point x="604" y="188"/>
      <point x="604" y="286" type="curve" smooth="yes"/>
      <point x="604" y="319"/>
      <point x="582" y="347"/>
      <point x="557" y="359" type="curve"/>
      <point x="597" y="383"/>
      <point x="620" y="417"/>
      <point x="620" y="457" type="curve" smooth="yes"/>
      <point x="620" y="511"/>
      <point x="568" y="548"/>
      <point x="477" y="548" type="curve" smooth="yes"/>
      <point x="375" y="548"/>
      <point x="309" y="506"/>
      <point x="309" y="428" type="curve" smooth="yes"/>
      <point x="309" y="392"/>
      <point x="325" y="371"/>
      <point x="342" y="360" type="curve"/>
      <point x="291" y="338"/>
      <point x="265" y="299"/>
    </contour>
    <contour>
      <point x="414" y="279" type="curve" smooth="yes"/>
      <point x="414" y="288"/>
      <point x="419" y="301"/>
      <point x="430" y="312" type="curve"/>
      <point x="450" y="312" type="line"/>
      <point x="453" y="306"/>
      <point x="454" y="299"/>
      <point x="454" y="293" type="curve" smooth="yes"/>
      <point x="454" y="281"/>
      <point x="451" y="263"/>
      <point x="430" y="263" type="curve" smooth="yes"/>
      <point x="420" y="263"/>
      <point x="414" y="270"/>
    </contour>
    <contour>
      <point x="446" y="423" type="curve" smooth="yes"/>
      <point x="446" y="435"/>
      <point x="452" y="450"/>
      <point x="468" y="450" type="curve" smooth="yes"/>
      <point x="479" y="450"/>
      <point x="483" y="444"/>
      <point x="483" y="435" type="curve" smooth="yes"/>
      <point x="483" y="424"/>
      <point x="478" y="414"/>
      <point x="469" y="406" type="curve"/>
      <point x="450" y="406" type="line"/>
      <point x="448" y="409"/>
      <point x="446" y="415"/>
    </contour>
  </outline>
</glyph>
<glyph name="uni24EA" format="2">
  <advance width="860"/>
  <unicode hex="24EA"/>
  <note>
uni24EA
</note>
  <outline>
    <contour>
      <point x="374" y="-40" type="curve" smooth="yes"/>
      <point x="639" y="-40"/>
      <point x="856" y="187"/>
      <point x="856" y="423" type="curve" smooth="yes"/>
      <point x="856" y="606"/>
      <point x="727" y="740"/>
      <point x="523" y="740" type="curve" smooth="yes"/>
      <point x="254" y="740"/>
      <point x="41" y="510"/>
      <point x="43" y="274" type="curve" smooth="yes"/>
      <point x="45" y="92"/>
      <point x="172" y="-40"/>
    </contour>
    <contour>
      <point x="86" y="275" type="curve" smooth="yes"/>
      <point x="86" y="489"/>
      <point x="281" y="701"/>
      <point x="525" y="701" type="curve" smooth="yes"/>
      <point x="702" y="701"/>
      <point x="815" y="585"/>
      <point x="815" y="422" type="curve" smooth="yes"/>
      <point x="815" y="205"/>
      <point x="614" y="-1"/>
      <point x="376" y="-1" type="curve" smooth="yes"/>
      <point x="198" y="-1"/>
      <point x="86" y="113"/>
    </contour>
    <contour>
      <point x="273" y="298" type="curve" smooth="yes"/>
      <point x="273" y="198"/>
      <point x="318" y="159"/>
      <point x="414" y="159" type="curve" smooth="yes"/>
      <point x="577" y="159"/>
      <point x="626" y="301"/>
      <point x="626" y="409" type="curve" smooth="yes"/>
      <point x="626" y="508"/>
      <point x="580" y="548"/>
      <point x="488" y="548" type="curve" smooth="yes"/>
      <point x="313" y="548"/>
      <point x="273" y="393"/>
    </contour>
    <contour>
      <point x="423" y="293" type="curve" smooth="yes"/>
      <point x="423" y="331"/>
      <point x="446" y="427"/>
      <point x="469" y="427" type="curve" smooth="yes"/>
      <point x="475" y="427"/>
      <point x="478" y="424"/>
      <point x="478" y="414" type="curve" smooth="yes"/>
      <point x="478" y="382"/>
      <point x="456" y="280"/>
      <point x="431" y="280" type="curve" smooth="yes"/>
      <point x="425" y="280"/>
      <point x="423" y="283"/>
    </contour>
  </outline>
</glyph>
<glyph name="uni24FF" format="2">
  <advance width="860"/>
  <unicode hex="24FF"/>
  <note>
uni24FF
</note>
  <outline>
    <contour>
      <point x="488" y="548" type="curve" smooth="yes"/>
      <point x="313" y="548"/>
      <point x="273" y="393"/>
      <point x="273" y="298" type="curve" smooth="yes"/>
      <point x="273" y="198"/>
      <point x="318" y="159"/>
      <point x="414" y="159" type="curve" smooth="yes"/>
      <point x="577" y="159"/>
      <point x="626" y="301"/>
      <point x="626" y="409" type="curve" smooth="yes"/>
      <point x="626" y="508"/>
      <point x="580" y="548"/>
    </contour>
    <contour>
      <point x="43" y="274" type="curve" smooth="yes"/>
      <point x="41" y="510"/>
      <point x="254" y="740"/>
      <point x="523" y="740" type="curve" smooth="yes"/>
      <point x="727" y="740"/>
      <point x="856" y="606"/>
      <point x="856" y="423" type="curve" smooth="yes"/>
      <point x="856" y="187"/>
      <point x="639" y="-40"/>
      <point x="374" y="-40" type="curve" smooth="yes"/>
      <point x="172" y="-40"/>
      <point x="45" y="92"/>
    </contour>
    <contour>
      <point x="423" y="293" type="curve" smooth="yes"/>
      <point x="423" y="331"/>
      <point x="446" y="427"/>
      <point x="469" y="427" type="curve" smooth="yes"/>
      <point x="475" y="427"/>
      <point x="478" y="424"/>
      <point x="478" y="414" type="curve" smooth="yes"/>
      <point x="478" y="382"/>
      <point x="456" y="280"/>
      <point x="431" y="280" type="curve" smooth="yes"/>
      <point x="425" y="280"/>
      <point x="423" y="283"/>
    </contour>
  </outline>
</glyph>
<glyph name="uni2776" format="2">
  <advance width="860"/>
  <unicode hex="2776"/>
  <note>
uni2776
</note>
  <outline>
    <contour>
      <point x="508" y="173" type="line"/>
      <point x="586" y="537" type="line"/>
      <point x="450" y="537" type="line"/>
      <point x="295" y="457" type="line"/>
      <point x="316" y="333" type="line"/>
      <point x="387" y="366" type="line"/>
      <point x="346" y="173" type="line"/>
    </contour>
    <contour>
      <point x="43" y="274" type="curve" smooth="yes"/>
      <point x="41" y="510"/>
      <point x="254" y="740"/>
      <point x="523" y="740" type="curve" smooth="yes"/>
      <point x="727" y="740"/>
      <point x="856" y="606"/>
      <point x="856" y="423" type="curve" smooth="yes"/>
      <point x="856" y="187"/>
      <point x="639" y="-40"/>
      <point x="374" y="-40" type="curve" smooth="yes"/>
      <point x="172" y="-40"/>
      <point x="45" y="92"/>
    </contour>
  </outline>
</glyph>
<glyph name="uni2777" format="2">
  <advance width="860"/>
  <unicode hex="2777"/>
  <note>
uni2777
</note>
  <outline>
    <contour>
      <point x="381" y="340" type="curve" smooth="yes"/>
      <point x="291" y="283" type="line"/>
      <point x="268" y="173" type="line"/>
      <point x="560" y="173" type="line"/>
      <point x="585" y="293" type="line"/>
      <point x="466" y="293" type="line"/>
      <point x="521" y="323" type="line" smooth="yes"/>
      <point x="581" y="355"/>
      <point x="617" y="389"/>
      <point x="617" y="454" type="curve" smooth="yes"/>
      <point x="617" y="506"/>
      <point x="577" y="547"/>
      <point x="489" y="547" type="curve" smooth="yes"/>
      <point x="440" y="547"/>
      <point x="346" y="535"/>
      <point x="346" y="535" type="curve"/>
      <point x="326" y="411" type="line"/>
      <point x="326" y="411"/>
      <point x="374" y="417"/>
      <point x="407" y="417" type="curve" smooth="yes"/>
      <point x="430" y="417"/>
      <point x="436" y="413"/>
      <point x="436" y="401" type="curve" smooth="yes"/>
      <point x="436" y="380"/>
      <point x="420" y="366"/>
    </contour>
    <contour>
      <point x="43" y="274" type="curve" smooth="yes"/>
      <point x="41" y="510"/>
      <point x="254" y="740"/>
      <point x="523" y="740" type="curve" smooth="yes"/>
      <point x="727" y="740"/>
      <point x="856" y="606"/>
      <point x="856" y="423" type="curve" smooth="yes"/>
      <point x="856" y="187"/>
      <point x="639" y="-40"/>
      <point x="374" y="-40" type="curve" smooth="yes"/>
      <point x="172" y="-40"/>
      <point x="45" y="92"/>
    </contour>
  </outline>
</glyph>
<glyph name="uni2779" format="2">
  <advance width="860"/>
  <unicode hex="2779"/>
  <note>
uni2779
</note>
  <outline>
    <contour>
      <point x="268" y="316" type="line"/>
      <point x="247" y="218" type="line"/>
      <point x="418" y="218" type="line"/>
      <point x="409" y="173" type="line"/>
      <point x="560" y="173" type="line"/>
      <point x="569" y="218" type="line"/>
      <point x="583" y="218" type="line"/>
      <point x="609" y="334" type="line"/>
      <point x="594" y="334" type="line"/>
      <point x="610" y="410" type="line"/>
      <point x="470" y="391" type="line"/>
      <point x="458" y="334" type="line"/>
      <point x="417" y="334" type="line"/>
      <point x="535" y="537" type="line"/>
      <point x="379" y="537" type="line"/>
    </contour>
    <contour>
      <point x="43" y="274" type="curve" smooth="yes"/>
      <point x="41" y="510"/>
      <point x="254" y="740"/>
      <point x="523" y="740" type="curve" smooth="yes"/>
      <point x="727" y="740"/>
      <point x="856" y="606"/>
      <point x="856" y="423" type="curve" smooth="yes"/>
      <point x="856" y="187"/>
      <point x="639" y="-40"/>
      <point x="374" y="-40" type="curve" smooth="yes"/>
      <point x="172" y="-40"/>
      <point x="45" y="92"/>
    </contour>
  </outline>
</glyph>
<glyph name="uni277A" format="2">
  <advance width="860"/>
  <unicode hex="277A"/>
  <note>
uni277A
</note>
  <outline>
    <contour>
      <point x="444" y="431" type="line"/>
      <point x="607" y="431" type="line"/>
      <point x="630" y="538" type="line"/>
      <point x="354" y="538" type="line"/>
      <point x="296" y="308" type="line"/>
      <point x="383" y="297" type="line"/>
      <point x="395" y="303"/>
      <point x="410" y="307"/>
      <point x="422" y="307" type="curve" smooth="yes"/>
      <point x="434" y="307"/>
      <point x="444" y="304"/>
      <point x="444" y="292" type="curve" smooth="yes"/>
      <point x="444" y="277"/>
      <point x="431" y="274"/>
      <point x="414" y="274" type="curve" smooth="yes"/>
      <point x="384" y="274"/>
      <point x="293" y="286"/>
      <point x="293" y="286" type="curve"/>
      <point x="259" y="172" type="line"/>
      <point x="259" y="172"/>
      <point x="353" y="159"/>
      <point x="416" y="159" type="curve" smooth="yes"/>
      <point x="546" y="159"/>
      <point x="608" y="214"/>
      <point x="608" y="302" type="curve" smooth="yes"/>
      <point x="608" y="379"/>
      <point x="557" y="402"/>
      <point x="492" y="402" type="curve" smooth="yes"/>
      <point x="468" y="402"/>
      <point x="447" y="398"/>
      <point x="430" y="394" type="curve"/>
    </contour>
    <contour>
      <point x="43" y="274" type="curve" smooth="yes"/>
      <point x="41" y="510"/>
      <point x="254" y="740"/>
      <point x="523" y="740" type="curve" smooth="yes"/>
      <point x="727" y="740"/>
      <point x="856" y="606"/>
      <point x="856" y="423" type="curve" smooth="yes"/>
      <point x="856" y="187"/>
      <point x="639" y="-40"/>
      <point x="374" y="-40" type="curve" smooth="yes"/>
      <point x="172" y="-40"/>
      <point x="45" y="92"/>
    </contour>
  </outline>
</glyph>
<glyph name="uni277B" format="2">
  <advance width="860"/>
  <unicode hex="277B"/>
  <note>
uni277B
</note>
  <outline>
    <contour>
      <point x="591" y="430" type="curve"/>
      <point x="624" y="536" type="line"/>
      <point x="624" y="536"/>
      <point x="557" y="548"/>
      <point x="504" y="548" type="curve" smooth="yes"/>
      <point x="314" y="548"/>
      <point x="275" y="394"/>
      <point x="275" y="312" type="curve" smooth="yes"/>
      <point x="275" y="214"/>
      <point x="326" y="159"/>
      <point x="429" y="159" type="curve" smooth="yes"/>
      <point x="541" y="159"/>
      <point x="600" y="226"/>
      <point x="600" y="307" type="curve" smooth="yes"/>
      <point x="600" y="370"/>
      <point x="558" y="407"/>
      <point x="500" y="407" type="curve" smooth="yes"/>
      <point x="472" y="407"/>
      <point x="451" y="403"/>
      <point x="435" y="393" type="curve"/>
      <point x="443" y="435"/>
      <point x="457" y="440"/>
      <point x="485" y="440" type="curve" smooth="yes"/>
      <point x="515" y="440"/>
      <point x="561" y="435"/>
    </contour>
    <contour>
      <point x="43" y="274" type="curve" smooth="yes"/>
      <point x="41" y="510"/>
      <point x="254" y="740"/>
      <point x="523" y="740" type="curve" smooth="yes"/>
      <point x="727" y="740"/>
      <point x="856" y="606"/>
      <point x="856" y="423" type="curve" smooth="yes"/>
      <point x="856" y="187"/>
      <point x="639" y="-40"/>
      <point x="374" y="-40" type="curve" smooth="yes"/>
      <point x="172" y="-40"/>
      <point x="45" y="92"/>
    </contour>
    <contour>
      <point x="414" y="285" type="curve" smooth="yes"/>
      <point x="414" y="292"/>
      <point x="415" y="299"/>
      <point x="417" y="307" type="curve"/>
      <point x="426" y="315"/>
      <point x="434" y="317"/>
      <point x="443" y="317" type="curve" smooth="yes"/>
      <point x="453" y="317"/>
      <point x="459" y="312"/>
      <point x="459" y="303" type="curve" smooth="yes"/>
      <point x="459" y="287"/>
      <point x="452" y="266"/>
      <point x="431" y="266" type="curve" smooth="yes"/>
      <point x="419" y="266"/>
      <point x="414" y="273"/>
    </contour>
  </outline>
</glyph>
<glyph name="uni277C" format="2">
  <advance width="860"/>
  <unicode hex="277C"/>
  <note>
uni277C
</note>
  <outline>
    <contour>
      <point x="618" y="410" type="line"/>
      <point x="644" y="537" type="line"/>
      <point x="344" y="537" type="line"/>
      <point x="316" y="405" type="line"/>
      <point x="449" y="405" type="line"/>
      <point x="446" y="389" type="line"/>
      <point x="300" y="207" type="line"/>
      <point x="416" y="140" type="line"/>
    </contour>
    <contour>
      <point x="43" y="274" type="curve" smooth="yes"/>
      <point x="41" y="510"/>
      <point x="254" y="740"/>
      <point x="523" y="740" type="curve" smooth="yes"/>
      <point x="727" y="740"/>
      <point x="856" y="606"/>
      <point x="856" y="423" type="curve" smooth="yes"/>
      <point x="856" y="187"/>
      <point x="639" y="-40"/>
      <point x="374" y="-40" type="curve" smooth="yes"/>
      <point x="172" y="-40"/>
      <point x="45" y="92"/>
    </contour>
  </outline>
</glyph>
<glyph name="uni277E" format="2">
  <advance width="860"/>
  <unicode hex="277E"/>
  <note>
uni277E
</note>
  <outline>
    <contour>
      <point x="302" y="279" type="curve"/>
      <point x="269" y="171" type="line"/>
      <point x="269" y="171"/>
      <point x="338" y="159"/>
      <point x="396" y="159" type="curve" smooth="yes"/>
      <point x="570" y="159"/>
      <point x="621" y="296"/>
      <point x="621" y="401" type="curve" smooth="yes"/>
      <point x="621" y="496"/>
      <point x="563" y="548"/>
      <point x="470" y="548" type="curve" smooth="yes"/>
      <point x="362" y="548"/>
      <point x="296" y="492"/>
      <point x="296" y="400" type="curve" smooth="yes"/>
      <point x="296" y="340"/>
      <point x="338" y="303"/>
      <point x="401" y="303" type="curve" smooth="yes"/>
      <point x="424" y="303"/>
      <point x="445" y="307"/>
      <point x="461" y="318" type="curve"/>
      <point x="455" y="275"/>
      <point x="441" y="269"/>
      <point x="408" y="269" type="curve" smooth="yes"/>
      <point x="384" y="269"/>
      <point x="302" y="279"/>
    </contour>
    <contour>
      <point x="43" y="274" type="curve" smooth="yes"/>
      <point x="41" y="510"/>
      <point x="254" y="740"/>
      <point x="523" y="740" type="curve" smooth="yes"/>
      <point x="727" y="740"/>
      <point x="856" y="606"/>
      <point x="856" y="423" type="curve" smooth="yes"/>
      <point x="856" y="187"/>
      <point x="639" y="-40"/>
      <point x="374" y="-40" type="curve" smooth="yes"/>
      <point x="172" y="-40"/>
      <point x="45" y="92"/>
    </contour>
    <contour>
      <point x="437" y="411" type="curve" smooth="yes"/>
      <point x="437" y="424"/>
      <point x="444" y="444"/>
      <point x="462" y="444" type="curve" smooth="yes"/>
      <point x="473" y="444"/>
      <point x="482" y="438"/>
      <point x="482" y="425" type="curve" smooth="yes"/>
      <point x="482" y="419"/>
      <point x="481" y="412"/>
      <point x="479" y="403" type="curve"/>
      <point x="473" y="396"/>
      <point x="467" y="392"/>
      <point x="455" y="392" type="curve" smooth="yes"/>
      <point x="444" y="392"/>
      <point x="437" y="398"/>
    </contour>
  </outline>
</glyph>
<glyph name="uni2B1C" format="2">
  <advance width="1183"/>
  <unicode hex="2B1C"/>
  <note>
uni2B1C
</note>
  <outline>
    <contour>
      <point x="-80" y="-230" type="line"/>
      <point x="162" y="904" type="line"/>
      <point x="1296" y="904" type="line"/>
      <point x="1054" y="-230" type="line"/>
    </contour>
    <contour>
      <point x="190" y="870" type="line"/>
      <point x="-36" y="-196" type="line"/>
      <point x="1026" y="-196" type="line"/>
      <point x="1252" y="870" type="line"/>
    </contour>
  </outline>
</glyph>
<glyph name="B.ss03" format="2">
  <advance width="1266"/>
  <note>
B.ss03
</note>
  <outline>
    <contour>
      <point x="524" y="-271" type="curve" smooth="yes"/>
      <point x="946" y="-271"/>
      <point x="1270" y="85"/>
      <point x="1270" y="459" type="curve" smooth="yes"/>
      <point x="1270" y="747"/>
      <point x="1076" y="938"/>
      <point x="771" y="938" type="curve" smooth="yes"/>
      <point x="345" y="938"/>
      <point x="28" y="580"/>
      <point x="28" y="207" type="curve" smooth="yes"/>
      <point x="28" y="-86"/>
      <point x="225" y="-271"/>
    </contour>
    <contour>
      <point x="70" y="211" type="curve" smooth="yes"/>
      <point x="70" y="567"/>
      <point x="379" y="900"/>
      <point x="769" y="900" type="curve" smooth="yes"/>
      <point x="1049" y="900"/>
      <point x="1228" y="731"/>
      <point x="1228" y="455" type="curve" smooth="yes"/>
      <point x="1228" y="100"/>
      <point x="915" y="-233"/>
      <point x="525" y="-233" type="curve" smooth="yes"/>
      <point x="245" y="-233"/>
      <point x="70" y="-64"/>
    </contour>
    <contour>
      <point x="464" y="710" type="line"/>
      <point x="313" y="0" type="line"/>
      <point x="674" y="0" type="line" smooth="yes"/>
      <point x="838" y="0"/>
      <point x="923" y="91"/>
      <point x="923" y="222" type="curve" smooth="yes"/>
      <point x="923" y="296"/>
      <point x="889" y="339"/>
      <point x="836" y="357" type="curve"/>
      <point x="925" y="387"/>
      <point x="968" y="458"/>
      <point x="968" y="555" type="curve" smooth="yes"/>
      <point x="968" y="661"/>
      <point x="902" y="710"/>
      <point x="771" y="710" type="curve" smooth="yes"/>
    </contour>
    <contour>
      <point x="628" y="154" type="curve" smooth="yes"/>
      <point x="567" y="154" type="line"/>
      <point x="594" y="282" type="line"/>
      <point x="642" y="282" type="line" smooth="yes"/>
      <point x="676" y="282"/>
      <point x="692" y="273"/>
      <point x="692" y="233" type="curve" smooth="yes"/>
      <point x="692" y="180"/>
      <point x="664" y="154"/>
    </contour>
    <contour>
      <point x="673" y="428" type="curve" smooth="yes"/>
      <point x="628" y="428" type="line"/>
      <point x="654" y="558" type="line"/>
      <point x="700" y="558" type="line" smooth="yes"/>
      <point x="728" y="558"/>
      <point x="743" y="546"/>
      <point x="743" y="510" type="curve" smooth="yes"/>
      <point x="743" y="464"/>
      <point x="719" y="428"/>
    </contour>
  </outline>
</glyph>
<glyph name="B.ss04" format="2">
  <advance width="1266"/>
  <note>
B.ss04
</note>
  <outline>
    <contour>
      <point x="771" y="710" type="curve" smooth="yes"/>
      <point x="464" y="710" type="line"/>
      <point x="313" y="0" type="line"/>
      <point x="674" y="0" type="line" smooth="yes"/>
      <point x="838" y="0"/>
      <point x="923" y="91"/>
      <point x="923" y="222" type="curve" smooth="yes"/>
      <point x="923" y="296"/>
      <point x="889" y="339"/>
      <point x="836" y="357" type="curve"/>
      <point x="925" y="387"/>
      <point x="968" y="458"/>
      <point x="968" y="555" type="curve" smooth="yes"/>
      <point x="968" y="661"/>
      <point x="902" y="710"/>
    </contour>
    <contour>
      <point x="28" y="207" type="curve" smooth="yes"/>
      <point x="28" y="580"/>
      <point x="345" y="938"/>
      <point x="771" y="938" type="curve" smooth="yes"/>
      <point x="1076" y="938"/>
      <point x="1270" y="747"/>
      <point x="1270" y="459" type="curve" smooth="yes"/>
      <point x="1270" y="85"/>
      <point x="946" y="-271"/>
      <point x="524" y="-271" type="curve" smooth="yes"/>
      <point x="225" y="-271"/>
      <point x="28" y="-86"/>
    </contour>
    <contour>
      <point x="628" y="154" type="curve" smooth="yes"/>
      <point x="567" y="154" type="line"/>
      <point x="594" y="282" type="line"/>
      <point x="642" y="282" type="line" smooth="yes"/>
      <point x="676" y="282"/>
      <point x="692" y="273"/>
      <point x="692" y="233" type="curve" smooth="yes"/>
      <point x="692" y="180"/>
      <point x="664" y="154"/>
    </contour>
    <contour>
      <point x="673" y="428" type="curve" smooth="yes"/>
      <point x="628" y="428" type="line"/>
      <point x="654" y="558" type="line"/>
      <point x="700" y="558" type="line" smooth="yes"/>
      <point x="728" y="558"/>
      <point x="743" y="546"/>
      <point x="743" y="510" type="curve" smooth="yes"/>
      <point x="743" y="464"/>
      <point x="719" y="428"/>
    </contour>
  </outline>
</glyph>
<glyph name="C.ss03" format="2">
  <advance width="1266"/>
  <note>
C.ss03
</note>
  <outline>
    <contour>
      <point x="524" y="-271" type="curve" smooth="yes"/>
      <point x="946" y="-271"/>
      <point x="1270" y="85"/>
      <point x="1270" y="459" type="curve" smooth="yes"/>
      <point x="1270" y="747"/>
      <point x="1076" y="938"/>
      <point x="771" y="938" type="curve" smooth="yes"/>
      <point x="345" y="938"/>
      <point x="28" y="580"/>
      <point x="28" y="207" type="curve" smooth="yes"/>
      <point x="28" y="-86"/>
      <point x="225" y="-271"/>
    </contour>
    <contour>
      <point x="70" y="211" type="curve" smooth="yes"/>
      <point x="70" y="567"/>
      <point x="379" y="900"/>
      <point x="769" y="900" type="curve" smooth="yes"/>
      <point x="1049" y="900"/>
      <point x="1228" y="731"/>
      <point x="1228" y="455" type="curve" smooth="yes"/>
      <point x="1228" y="100"/>
      <point x="915" y="-233"/>
      <point x="525" y="-233" type="curve" smooth="yes"/>
      <point x="245" y="-233"/>
      <point x="70" y="-64"/>
    </contour>
    <contour>
      <point x="348" y="215" type="curve" smooth="yes"/>
      <point x="348" y="52"/>
      <point x="418" y="-14"/>
      <point x="583" y="-14" type="curve" smooth="yes"/>
      <point x="700" y="-14"/>
      <point x="788" y="10"/>
      <point x="788" y="10" type="curve"/>
      <point x="822" y="188" type="line"/>
      <point x="822" y="188"/>
      <point x="742" y="179"/>
      <point x="687" y="179" type="curve" smooth="yes"/>
      <point x="614" y="179"/>
      <point x="585" y="191"/>
      <point x="585" y="248" type="curve" smooth="yes"/>
      <point x="585" y="364"/>
      <point x="617" y="530"/>
      <point x="756" y="530" type="curve" smooth="yes"/>
      <point x="803" y="530"/>
      <point x="887" y="521"/>
      <point x="887" y="521" type="curve"/>
      <point x="931" y="699" type="line"/>
      <point x="931" y="699"/>
      <point x="851" y="726"/>
      <point x="738" y="726" type="curve" smooth="yes"/>
      <point x="425" y="726"/>
      <point x="348" y="399"/>
    </contour>
  </outline>
</glyph>
<glyph name="C.ss04" format="2">
  <advance width="1266"/>
  <note>
C.ss04
</note>
  <outline>
    <contour>
      <point x="524" y="-271" type="curve" smooth="yes"/>
      <point x="225" y="-271"/>
      <point x="28" y="-86"/>
      <point x="28" y="207" type="curve" smooth="yes"/>
      <point x="28" y="580"/>
      <point x="345" y="938"/>
      <point x="771" y="938" type="curve" smooth="yes"/>
      <point x="1076" y="938"/>
      <point x="1270" y="747"/>
      <point x="1270" y="459" type="curve" smooth="yes"/>
      <point x="1270" y="85"/>
      <point x="946" y="-271"/>
    </contour>
    <contour>
      <point x="348" y="215" type="curve" smooth="yes"/>
      <point x="348" y="52"/>
      <point x="418" y="-14"/>
      <point x="583" y="-14" type="curve" smooth="yes"/>
      <point x="700" y="-14"/>
      <point x="788" y="10"/>
      <point x="788" y="10" type="curve"/>
      <point x="822" y="188" type="line"/>
      <point x="822" y="188"/>
      <point x="742" y="179"/>
      <point x="687" y="179" type="curve" smooth="yes"/>
      <point x="614" y="179"/>
      <point x="585" y="191"/>
      <point x="585" y="248" type="curve" smooth="yes"/>
      <point x="585" y="364"/>
      <point x="617" y="530"/>
      <point x="756" y="530" type="curve" smooth="yes"/>
      <point x="803" y="530"/>
      <point x="887" y="521"/>
      <point x="887" y="521" type="curve"/>
      <point x="931" y="699" type="line"/>
      <point x="931" y="699"/>
      <point x="851" y="726"/>
      <point x="738" y="726" type="curve" smooth="yes"/>
      <point x="425" y="726"/>
      <point x="348" y="399"/>
    </contour>
  </outline>
</glyph>
<glyph name="D.ss04" format="2">
  <advance width="1266"/>
  <note>
D.ss04
</note>
  <outline>
    <contour>
      <point x="524" y="-271" type="curve" smooth="yes"/>
      <point x="225" y="-271"/>
      <point x="28" y="-86"/>
      <point x="28" y="207" type="curve" smooth="yes"/>
      <point x="28" y="580"/>
      <point x="345" y="938"/>
      <point x="771" y="938" type="curve" smooth="yes"/>
      <point x="1076" y="938"/>
      <point x="1270" y="747"/>
      <point x="1270" y="459" type="curve" smooth="yes"/>
      <point x="1270" y="85"/>
      <point x="946" y="-271"/>
    </contour>
    <contour>
      <point x="465" y="710" type="line"/>
      <point x="313" y="0" type="line"/>
      <point x="650" y="0" type="line" smooth="yes"/>
      <point x="895" y="0"/>
      <point x="1001" y="239"/>
      <point x="1001" y="459" type="curve" smooth="yes"/>
      <point x="1001" y="639"/>
      <point x="899" y="710"/>
      <point x="723" y="710" type="curve" smooth="yes"/>
    </contour>
    <contour>
      <point x="633" y="189" type="curve" smooth="yes"/>
      <point x="582" y="189" type="line"/>
      <point x="654" y="521" type="line"/>
      <point x="696" y="521" type="line" smooth="yes"/>
      <point x="746" y="521"/>
      <point x="765" y="501"/>
      <point x="765" y="426" type="curve" smooth="yes"/>
      <point x="765" y="300"/>
      <point x="719" y="189"/>
    </contour>
  </outline>
</glyph>
<glyph name="E.ss04" format="2">
  <advance width="1266"/>
  <note>
E.ss04
</note>
  <outline>
    <contour>
      <point x="920" y="525" type="line"/>
      <point x="960" y="710" type="line"/>
      <point x="468" y="710" type="line"/>
      <point x="318" y="0" type="line"/>
      <point x="818" y="0" type="line"/>
      <point x="858" y="185" type="line"/>
      <point x="586" y="185" type="line"/>
      <point x="605" y="276" type="line"/>
      <point x="805" y="276" type="line"/>
      <point x="845" y="446" type="line"/>
      <point x="641" y="446" type="line"/>
      <point x="658" y="525" type="line"/>
    </contour>
    <contour>
      <point x="28" y="207" type="curve" smooth="yes"/>
      <point x="28" y="580"/>
      <point x="345" y="938"/>
      <point x="771" y="938" type="curve" smooth="yes"/>
      <point x="1076" y="938"/>
      <point x="1270" y="747"/>
      <point x="1270" y="459" type="curve" smooth="yes"/>
      <point x="1270" y="85"/>
      <point x="946" y="-271"/>
      <point x="524" y="-271" type="curve" smooth="yes"/>
      <point x="225" y="-271"/>
      <point x="28" y="-86"/>
    </contour>
  </outline>
</glyph>
<glyph name="F.ss04" format="2">
  <advance width="1266"/>
  <note>
F.ss04
</note>
  <outline>
    <contour>
      <point x="937" y="525" type="line"/>
      <point x="977" y="710" type="line"/>
      <point x="503" y="710" type="line"/>
      <point x="353" y="0" type="line"/>
      <point x="582" y="0" type="line"/>
      <point x="631" y="233" type="line"/>
      <point x="815" y="233" type="line"/>
      <point x="855" y="413" type="line"/>
      <point x="669" y="413" type="line"/>
      <point x="693" y="525" type="line"/>
    </contour>
    <contour>
      <point x="28" y="207" type="curve" smooth="yes"/>
      <point x="28" y="580"/>
      <point x="345" y="938"/>
      <point x="771" y="938" type="curve" smooth="yes"/>
      <point x="1076" y="938"/>
      <point x="1270" y="747"/>
      <point x="1270" y="459" type="curve" smooth="yes"/>
      <point x="1270" y="85"/>
      <point x="946" y="-271"/>
      <point x="524" y="-271" type="curve" smooth="yes"/>
      <point x="225" y="-271"/>
      <point x="28" y="-86"/>
    </contour>
  </outline>
</glyph>
<glyph name="G.ss03" format="2">
  <advance width="1266"/>
  <note>
G.ss03
</note>
  <outline>
    <contour>
      <point x="524" y="-271" type="curve" smooth="yes"/>
      <point x="946" y="-271"/>
      <point x="1270" y="85"/>
      <point x="1270" y="459" type="curve" smooth="yes"/>
      <point x="1270" y="747"/>
      <point x="1076" y="938"/>
      <point x="771" y="938" type="curve" smooth="yes"/>
      <point x="345" y="938"/>
      <point x="28" y="580"/>
      <point x="28" y="207" type="curve" smooth="yes"/>
      <point x="28" y="-86"/>
      <point x="225" y="-271"/>
    </contour>
    <contour>
      <point x="70" y="211" type="curve" smooth="yes"/>
      <point x="70" y="567"/>
      <point x="379" y="900"/>
      <point x="769" y="900" type="curve" smooth="yes"/>
      <point x="1049" y="900"/>
      <point x="1228" y="731"/>
      <point x="1228" y="455" type="curve" smooth="yes"/>
      <point x="1228" y="100"/>
      <point x="915" y="-233"/>
      <point x="525" y="-233" type="curve" smooth="yes"/>
      <point x="245" y="-233"/>
      <point x="70" y="-64"/>
    </contour>
    <contour>
      <point x="323" y="218" type="curve" smooth="yes"/>
      <point x="323" y="57"/>
      <point x="389" y="-14"/>
      <point x="546" y="-14" type="curve" smooth="yes"/>
      <point x="658" y="-14"/>
      <point x="838" y="16"/>
      <point x="838" y="16" type="curve"/>
      <point x="919" y="399" type="line"/>
      <point x="667" y="399" type="line"/>
      <point x="634" y="237" type="line"/>
      <point x="681" y="237" type="line"/>
      <point x="669" y="187" type="line"/>
      <point x="669" y="187"/>
      <point x="645" y="181"/>
      <point x="627" y="181" type="curve" smooth="yes"/>
      <point x="581" y="181"/>
      <point x="560" y="186"/>
      <point x="560" y="255" type="curve" smooth="yes"/>
      <point x="560" y="360"/>
      <point x="581" y="530"/>
      <point x="719" y="530" type="curve" smooth="yes"/>
      <point x="780" y="530"/>
      <point x="935" y="517"/>
      <point x="935" y="517" type="curve"/>
      <point x="974" y="692" type="line"/>
      <point x="974" y="692"/>
      <point x="825" y="726"/>
      <point x="712" y="726" type="curve" smooth="yes"/>
      <point x="396" y="726"/>
      <point x="323" y="395"/>
    </contour>
  </outline>
</glyph>
<glyph name="G.ss04" format="2">
  <advance width="1266"/>
  <note>
G.ss04
</note>
  <outline>
    <contour>
      <point x="838" y="16" type="curve"/>
      <point x="919" y="399" type="line"/>
      <point x="667" y="399" type="line"/>
      <point x="634" y="237" type="line"/>
      <point x="681" y="237" type="line"/>
      <point x="669" y="187" type="line"/>
      <point x="669" y="187"/>
      <point x="645" y="181"/>
      <point x="627" y="181" type="curve" smooth="yes"/>
      <point x="581" y="181"/>
      <point x="560" y="186"/>
      <point x="560" y="255" type="curve" smooth="yes"/>
      <point x="560" y="360"/>
      <point x="581" y="530"/>
      <point x="719" y="530" type="curve" smooth="yes"/>
      <point x="780" y="530"/>
      <point x="935" y="517"/>
      <point x="935" y="517" type="curve"/>
      <point x="974" y="692" type="line"/>
      <point x="974" y="692"/>
      <point x="825" y="726"/>
      <point x="712" y="726" type="curve" smooth="yes"/>
      <point x="396" y="726"/>
      <point x="323" y="395"/>
      <point x="323" y="218" type="curve" smooth="yes"/>
      <point x="323" y="57"/>
      <point x="389" y="-14"/>
      <point x="546" y="-14" type="curve" smooth="yes"/>
      <point x="658" y="-14"/>
      <point x="838" y="16"/>
    </contour>
    <contour>
      <point x="28" y="207" type="curve" smooth="yes"/>
      <point x="28" y="580"/>
      <point x="345" y="938"/>
      <point x="771" y="938" type="curve" smooth="yes"/>
      <point x="1076" y="938"/>
      <point x="1270" y="747"/>
      <point x="1270" y="459" type="curve" smooth="yes"/>
      <point x="1270" y="85"/>
      <point x="946" y="-271"/>
      <point x="524" y="-271" type="curve" smooth="yes"/>
      <point x="225" y="-271"/>
      <point x="28" y="-86"/>
    </contour>
  </outline>
</glyph>
<glyph name="H.ss03" format="2">
  <advance width="1266"/>
  <note>
H.ss03
</note>
  <outline>
    <contour>
      <point x="524" y="-271" type="curve" smooth="yes"/>
      <point x="946" y="-271"/>
      <point x="1270" y="85"/>
      <point x="1270" y="459" type="curve" smooth="yes"/>
      <point x="1270" y="747"/>
      <point x="1076" y="938"/>
      <point x="771" y="938" type="curve" smooth="yes"/>
      <point x="345" y="938"/>
      <point x="28" y="580"/>
      <point x="28" y="207" type="curve" smooth="yes"/>
      <point x="28" y="-86"/>
      <point x="225" y="-271"/>
    </contour>
    <contour>
      <point x="70" y="211" type="curve" smooth="yes"/>
      <point x="70" y="567"/>
      <point x="379" y="900"/>
      <point x="769" y="900" type="curve" smooth="yes"/>
      <point x="1049" y="900"/>
      <point x="1228" y="731"/>
      <point x="1228" y="455" type="curve" smooth="yes"/>
      <point x="1228" y="100"/>
      <point x="915" y="-233"/>
      <point x="525" y="-233" type="curve" smooth="yes"/>
      <point x="245" y="-233"/>
      <point x="70" y="-64"/>
    </contour>
    <contour>
      <point x="431" y="710" type="line"/>
      <point x="279" y="0" type="line"/>
      <point x="508" y="0" type="line"/>
      <point x="563" y="259" type="line"/>
      <point x="702" y="259" type="line"/>
      <point x="647" y="0" type="line"/>
      <point x="876" y="0" type="line"/>
      <point x="1028" y="710" type="line"/>
      <point x="799" y="710" type="line"/>
      <point x="743" y="449" type="line"/>
      <point x="604" y="449" type="line"/>
      <point x="660" y="710" type="line"/>
    </contour>
  </outline>
</glyph>
<glyph name="H.ss05" format="2">
  <advance width="1222"/>
  <note>
H.ss05
</note>
  <outline>
    <contour>
      <point x="-80" y="-230" type="line"/>
      <point x="162" y="904" type="line"/>
      <point x="1296" y="904" type="line"/>
      <point x="1054" y="-230" type="line"/>
    </contour>
    <contour>
      <point x="190" y="870" type="line"/>
      <point x="-36" y="-196" type="line"/>
      <point x="1026" y="-196" type="line"/>
      <point x="1252" y="870" type="line"/>
    </contour>
    <contour>
      <point x="404" y="710" type="line"/>
      <point x="252" y="0" type="line"/>
      <point x="481" y="0" type="line"/>
      <point x="536" y="259" type="line"/>
      <point x="675" y="259" type="line"/>
      <point x="620" y="0" type="line"/>
      <point x="849" y="0" type="line"/>
      <point x="1001" y="710" type="line"/>
      <point x="772" y="710" type="line"/>
      <point x="716" y="449" type="line"/>
      <point x="577" y="449" type="line"/>
      <point x="633" y="710" type="line"/>
    </contour>
  </outline>
</glyph>
<glyph name="I.ss04" format="2">
  <advance width="1266"/>
  <note>
I.ss04
</note>
  <outline>
    <contour>
      <point x="693" y="0" type="line"/>
      <point x="844" y="710" type="line"/>
      <point x="615" y="710" type="line"/>
      <point x="464" y="0" type="line"/>
    </contour>
    <contour>
      <point x="28" y="207" type="curve" smooth="yes"/>
      <point x="28" y="580"/>
      <point x="345" y="938"/>
      <point x="771" y="938" type="curve" smooth="yes"/>
      <point x="1076" y="938"/>
      <point x="1270" y="747"/>
      <point x="1270" y="459" type="curve" smooth="yes"/>
      <point x="1270" y="85"/>
      <point x="946" y="-271"/>
      <point x="524" y="-271" type="curve" smooth="yes"/>
      <point x="225" y="-271"/>
      <point x="28" y="-86"/>
    </contour>
  </outline>
</glyph>
<glyph name="J.ss03" format="2">
  <advance width="1266"/>
  <note>
J.ss03
</note>
  <outline>
    <contour>
      <point x="524" y="-271" type="curve" smooth="yes"/>
      <point x="946" y="-271"/>
      <point x="1270" y="85"/>
      <point x="1270" y="459" type="curve" smooth="yes"/>
      <point x="1270" y="747"/>
      <point x="1076" y="938"/>
      <point x="771" y="938" type="curve" smooth="yes"/>
      <point x="345" y="938"/>
      <point x="28" y="580"/>
      <point x="28" y="207" type="curve" smooth="yes"/>
      <point x="28" y="-86"/>
      <point x="225" y="-271"/>
    </contour>
    <contour>
      <point x="70" y="211" type="curve" smooth="yes"/>
      <point x="70" y="567"/>
      <point x="379" y="900"/>
      <point x="769" y="900" type="curve" smooth="yes"/>
      <point x="1049" y="900"/>
      <point x="1228" y="731"/>
      <point x="1228" y="455" type="curve" smooth="yes"/>
      <point x="1228" y="100"/>
      <point x="915" y="-233"/>
      <point x="525" y="-233" type="curve" smooth="yes"/>
      <point x="245" y="-233"/>
      <point x="70" y="-64"/>
    </contour>
    <contour>
      <point x="470" y="184" type="curve"/>
      <point x="430" y="-7" type="line"/>
      <point x="658" y="-7"/>
      <point x="718" y="25"/>
      <point x="752" y="183" type="curve" smooth="yes"/>
      <point x="865" y="710" type="line"/>
      <point x="638" y="710" type="line"/>
      <point x="543" y="268" type="line" smooth="yes"/>
      <point x="526" y="187"/>
      <point x="522" y="184"/>
    </contour>
  </outline>
</glyph>
<glyph name="J.ss05" format="2">
  <advance width="1222"/>
  <note>
J.ss05
</note>
  <outline>
    <contour>
      <point x="-80" y="-230" type="line"/>
      <point x="162" y="904" type="line"/>
      <point x="1296" y="904" type="line"/>
      <point x="1054" y="-230" type="line"/>
    </contour>
    <contour>
      <point x="190" y="870" type="line"/>
      <point x="-36" y="-196" type="line"/>
      <point x="1026" y="-196" type="line"/>
      <point x="1252" y="870" type="line"/>
    </contour>
    <contour>
      <point x="430" y="184" type="curve"/>
      <point x="390" y="-7" type="line"/>
      <point x="618" y="-7"/>
      <point x="678" y="25"/>
      <point x="712" y="183" type="curve" smooth="yes"/>
      <point x="825" y="710" type="line"/>
      <point x="598" y="710" type="line"/>
      <point x="503" y="268" type="line" smooth="yes"/>
      <point x="486" y="187"/>
      <point x="482" y="184"/>
    </contour>
  </outline>
</glyph>
<glyph name="K.ss03" format="2">
  <advance width="1266"/>
  <note>
K.ss03
</note>
  <outline>
    <contour>
      <point x="524" y="-271" type="curve" smooth="yes"/>
      <point x="946" y="-271"/>
      <point x="1270" y="85"/>
      <point x="1270" y="459" type="curve" smooth="yes"/>
      <point x="1270" y="747"/>
      <point x="1076" y="938"/>
      <point x="771" y="938" type="curve" smooth="yes"/>
      <point x="345" y="938"/>
      <point x="28" y="580"/>
      <point x="28" y="207" type="curve" smooth="yes"/>
      <point x="28" y="-86"/>
      <point x="225" y="-271"/>
    </contour>
    <contour>
      <point x="70" y="211" type="curve" smooth="yes"/>
      <point x="70" y="567"/>
      <point x="379" y="900"/>
      <point x="769" y="900" type="curve" smooth="yes"/>
      <point x="1049" y="900"/>
      <point x="1228" y="731"/>
      <point x="1228" y="455" type="curve" smooth="yes"/>
      <point x="1228" y="100"/>
      <point x="915" y="-233"/>
      <point x="525" y="-233" type="curve" smooth="yes"/>
      <point x="245" y="-233"/>
      <point x="70" y="-64"/>
    </contour>
    <contour>
      <point x="462" y="710" type="line"/>
      <point x="310" y="0" type="line"/>
      <point x="539" y="0" type="line"/>
      <point x="590" y="241" type="line"/>
      <point x="639" y="241" type="line"/>
      <point x="660" y="0" type="line"/>
      <point x="885" y="0" type="line"/>
      <point x="847" y="361" type="line"/>
      <point x="1024" y="710" type="line"/>
      <point x="799" y="710" type="line"/>
      <point x="672" y="451" type="line"/>
      <point x="633" y="451" type="line"/>
      <point x="690" y="710" type="line"/>
    </contour>
  </outline>
</glyph>
<glyph name="K.ss04" format="2">
  <advance width="1266"/>
  <note>
K.ss04
</note>
  <outline>
    <contour>
      <point x="539" y="0" type="line"/>
      <point x="590" y="241" type="line"/>
      <point x="639" y="241" type="line"/>
      <point x="660" y="0" type="line"/>
      <point x="885" y="0" type="line"/>
      <point x="847" y="361" type="line"/>
      <point x="1024" y="710" type="line"/>
      <point x="799" y="710" type="line"/>
      <point x="672" y="451" type="line"/>
      <point x="633" y="451" type="line"/>
      <point x="690" y="710" type="line"/>
      <point x="462" y="710" type="line"/>
      <point x="310" y="0" type="line"/>
    </contour>
    <contour>
      <point x="28" y="207" type="curve" smooth="yes"/>
      <point x="28" y="580"/>
      <point x="345" y="938"/>
      <point x="771" y="938" type="curve" smooth="yes"/>
      <point x="1076" y="938"/>
      <point x="1270" y="747"/>
      <point x="1270" y="459" type="curve" smooth="yes"/>
      <point x="1270" y="85"/>
      <point x="946" y="-271"/>
      <point x="524" y="-271" type="curve" smooth="yes"/>
      <point x="225" y="-271"/>
      <point x="28" y="-86"/>
    </contour>
  </outline>
</glyph>
<glyph name="L.ss04" format="2">
  <advance width="1266"/>
  <note>
L.ss04
</note>
  <outline>
    <contour>
      <point x="760" y="710" type="line"/>
      <point x="531" y="710" type="line"/>
      <point x="379" y="0" type="line"/>
      <point x="820" y="0" type="line"/>
      <point x="861" y="190" type="line"/>
      <point x="649" y="190" type="line"/>
    </contour>
    <contour>
      <point x="28" y="207" type="curve" smooth="yes"/>
      <point x="28" y="580"/>
      <point x="345" y="938"/>
      <point x="771" y="938" type="curve" smooth="yes"/>
      <point x="1076" y="938"/>
      <point x="1270" y="747"/>
      <point x="1270" y="459" type="curve" smooth="yes"/>
      <point x="1270" y="85"/>
      <point x="946" y="-271"/>
      <point x="524" y="-271" type="curve" smooth="yes"/>
      <point x="225" y="-271"/>
      <point x="28" y="-86"/>
    </contour>
  </outline>
</glyph>
<glyph name="M.ss03" format="2">
  <advance width="1266"/>
  <note>
M.ss03
</note>
  <outline>
    <contour>
      <point x="663" y="700" type="line"/>
      <point x="331" y="700" type="line"/>
      <point x="182" y="0" type="line"/>
      <point x="400" y="0" type="line"/>
      <point x="479" y="375" type="line"/>
      <point x="504" y="375" type="line"/>
      <point x="484" y="0" type="line"/>
      <point x="658" y="0" type="line"/>
      <point x="799" y="375" type="line"/>
      <point x="823" y="375" type="line"/>
      <point x="744" y="0" type="line"/>
      <point x="961" y="0" type="line"/>
      <point x="1110" y="700" type="line"/>
      <point x="776" y="700" type="line"/>
      <point x="646" y="353" type="line"/>
    </contour>
    <contour>
      <point x="28" y="207" type="curve" smooth="yes"/>
      <point x="28" y="-86"/>
      <point x="225" y="-271"/>
      <point x="524" y="-271" type="curve" smooth="yes"/>
      <point x="946" y="-271"/>
      <point x="1270" y="85"/>
      <point x="1270" y="459" type="curve" smooth="yes"/>
      <point x="1270" y="747"/>
      <point x="1076" y="938"/>
      <point x="771" y="938" type="curve" smooth="yes"/>
      <point x="345" y="938"/>
      <point x="28" y="580"/>
    </contour>
    <contour>
      <point x="70" y="211" type="curve" smooth="yes"/>
      <point x="70" y="567"/>
      <point x="379" y="900"/>
      <point x="769" y="900" type="curve" smooth="yes"/>
      <point x="1049" y="900"/>
      <point x="1228" y="731"/>
      <point x="1228" y="455" type="curve" smooth="yes"/>
      <point x="1228" y="100"/>
      <point x="915" y="-233"/>
      <point x="525" y="-233" type="curve" smooth="yes"/>
      <point x="245" y="-233"/>
      <point x="70" y="-64"/>
    </contour>
  </outline>
</glyph>
<glyph name="M.ss04" format="2">
  <advance width="1266"/>
  <note>
M.ss04
</note>
  <outline>
    <contour>
      <point x="648" y="364" type="line"/>
      <point x="665" y="710" type="line"/>
      <point x="333" y="710" type="line"/>
      <point x="181" y="0" type="line"/>
      <point x="398" y="0" type="line"/>
      <point x="481" y="385" type="line"/>
      <point x="505" y="385" type="line"/>
      <point x="483" y="0" type="line"/>
      <point x="657" y="0" type="line"/>
      <point x="801" y="385" type="line"/>
      <point x="825" y="385" type="line"/>
      <point x="742" y="0" type="line"/>
      <point x="960" y="0" type="line"/>
      <point x="1112" y="710" type="line"/>
      <point x="777" y="710" type="line"/>
    </contour>
    <contour>
      <point x="28" y="207" type="curve" smooth="yes"/>
      <point x="28" y="580"/>
      <point x="345" y="938"/>
      <point x="771" y="938" type="curve" smooth="yes"/>
      <point x="1076" y="938"/>
      <point x="1270" y="747"/>
      <point x="1270" y="459" type="curve" smooth="yes"/>
      <point x="1270" y="85"/>
      <point x="946" y="-271"/>
      <point x="524" y="-271" type="curve" smooth="yes"/>
      <point x="225" y="-271"/>
      <point x="28" y="-86"/>
    </contour>
  </outline>
</glyph>
<glyph name="N.ss03" format="2">
  <advance width="1266"/>
  <note>
N.ss03
</note>
  <outline>
    <contour>
      <point x="524" y="-271" type="curve" smooth="yes"/>
      <point x="946" y="-271"/>
      <point x="1270" y="85"/>
      <point x="1270" y="459" type="curve" smooth="yes"/>
      <point x="1270" y="747"/>
      <point x="1076" y="938"/>
      <point x="771" y="938" type="curve" smooth="yes"/>
      <point x="345" y="938"/>
      <point x="28" y="580"/>
      <point x="28" y="207" type="curve" smooth="yes"/>
      <point x="28" y="-86"/>
      <point x="225" y="-271"/>
    </contour>
    <contour>
      <point x="70" y="211" type="curve" smooth="yes"/>
      <point x="70" y="567"/>
      <point x="379" y="900"/>
      <point x="769" y="900" type="curve" smooth="yes"/>
      <point x="1049" y="900"/>
      <point x="1228" y="731"/>
      <point x="1228" y="455" type="curve" smooth="yes"/>
      <point x="1228" y="100"/>
      <point x="915" y="-233"/>
      <point x="525" y="-233" type="curve" smooth="yes"/>
      <point x="245" y="-233"/>
      <point x="70" y="-64"/>
    </contour>
    <contour>
      <point x="399" y="710" type="line"/>
      <point x="247" y="0" type="line"/>
      <point x="474" y="0" type="line"/>
      <point x="542" y="313" type="line"/>
      <point x="566" y="313" type="line"/>
      <point x="667" y="0" type="line"/>
      <point x="883" y="0" type="line"/>
      <point x="1035" y="710" type="line"/>
      <point x="808" y="710" type="line"/>
      <point x="744" y="406" type="line"/>
      <point x="720" y="406" type="line"/>
      <point x="615" y="710" type="line"/>
    </contour>
  </outline>
</glyph>
<glyph name="N.ss04" format="2">
  <advance width="1266"/>
  <note>
N.ss04
</note>
  <outline>
    <contour>
      <point x="720" y="406" type="line"/>
      <point x="615" y="710" type="line"/>
      <point x="399" y="710" type="line"/>
      <point x="247" y="0" type="line"/>
      <point x="474" y="0" type="line"/>
      <point x="542" y="313" type="line"/>
      <point x="566" y="313" type="line"/>
      <point x="667" y="0" type="line"/>
      <point x="883" y="0" type="line"/>
      <point x="1035" y="710" type="line"/>
      <point x="808" y="710" type="line"/>
      <point x="744" y="406" type="line"/>
    </contour>
    <contour>
      <point x="28" y="207" type="curve" smooth="yes"/>
      <point x="28" y="580"/>
      <point x="345" y="938"/>
      <point x="771" y="938" type="curve" smooth="yes"/>
      <point x="1076" y="938"/>
      <point x="1270" y="747"/>
      <point x="1270" y="459" type="curve" smooth="yes"/>
      <point x="1270" y="85"/>
      <point x="946" y="-271"/>
      <point x="524" y="-271" type="curve" smooth="yes"/>
      <point x="225" y="-271"/>
      <point x="28" y="-86"/>
    </contour>
  </outline>
</glyph>
<glyph name="O.ss03" format="2">
  <advance width="1266"/>
  <note>
O.ss03
</note>
  <outline>
    <contour>
      <point x="524" y="-271" type="curve" smooth="yes"/>
      <point x="946" y="-271"/>
      <point x="1270" y="85"/>
      <point x="1270" y="459" type="curve" smooth="yes"/>
      <point x="1270" y="747"/>
      <point x="1076" y="938"/>
      <point x="771" y="938" type="curve" smooth="yes"/>
      <point x="345" y="938"/>
      <point x="28" y="580"/>
      <point x="28" y="207" type="curve" smooth="yes"/>
      <point x="28" y="-86"/>
      <point x="225" y="-271"/>
    </contour>
    <contour>
      <point x="70" y="211" type="curve" smooth="yes"/>
      <point x="70" y="567"/>
      <point x="379" y="900"/>
      <point x="769" y="900" type="curve" smooth="yes"/>
      <point x="1049" y="900"/>
      <point x="1228" y="731"/>
      <point x="1228" y="455" type="curve" smooth="yes"/>
      <point x="1228" y="100"/>
      <point x="915" y="-233"/>
      <point x="525" y="-233" type="curve" smooth="yes"/>
      <point x="245" y="-233"/>
      <point x="70" y="-64"/>
    </contour>
    <contour>
      <point x="300" y="253" type="curve" smooth="yes"/>
      <point x="300" y="48"/>
      <point x="434" y="-14"/>
      <point x="604" y="-14" type="curve" smooth="yes"/>
      <point x="894" y="-14"/>
      <point x="1003" y="255"/>
      <point x="1003" y="455" type="curve" smooth="yes"/>
      <point x="1003" y="660"/>
      <point x="875" y="726"/>
      <point x="705" y="726" type="curve" smooth="yes"/>
      <point x="415" y="726"/>
      <point x="300" y="453"/>
    </contour>
    <contour>
      <point x="541" y="253" type="curve" smooth="yes"/>
      <point x="541" y="368"/>
      <point x="588" y="538"/>
      <point x="688" y="538" type="curve" smooth="yes"/>
      <point x="733" y="538"/>
      <point x="761" y="517"/>
      <point x="761" y="466" type="curve" smooth="yes"/>
      <point x="761" y="351"/>
      <point x="716" y="175"/>
      <point x="616" y="175" type="curve" smooth="yes"/>
      <point x="571" y="175"/>
      <point x="541" y="197"/>
    </contour>
  </outline>
</glyph>
<glyph name="O.ss04" format="2">
  <advance width="1266"/>
  <note>
O.ss04
</note>
  <outline>
    <contour>
      <point x="604" y="-14" type="curve" smooth="yes"/>
      <point x="894" y="-14"/>
      <point x="1003" y="255"/>
      <point x="1003" y="455" type="curve" smooth="yes"/>
      <point x="1003" y="660"/>
      <point x="875" y="726"/>
      <point x="705" y="726" type="curve" smooth="yes"/>
      <point x="415" y="726"/>
      <point x="300" y="453"/>
      <point x="300" y="253" type="curve" smooth="yes"/>
      <point x="300" y="48"/>
      <point x="434" y="-14"/>
    </contour>
    <contour>
      <point x="28" y="207" type="curve" smooth="yes"/>
      <point x="28" y="580"/>
      <point x="345" y="938"/>
      <point x="771" y="938" type="curve" smooth="yes"/>
      <point x="1076" y="938"/>
      <point x="1270" y="747"/>
      <point x="1270" y="459" type="curve" smooth="yes"/>
      <point x="1270" y="85"/>
      <point x="946" y="-271"/>
      <point x="524" y="-271" type="curve" smooth="yes"/>
      <point x="225" y="-271"/>
      <point x="28" y="-86"/>
    </contour>
    <contour>
      <point x="541" y="253" type="curve" smooth="yes"/>
      <point x="541" y="368"/>
      <point x="588" y="538"/>
      <point x="688" y="538" type="curve" smooth="yes"/>
      <point x="733" y="538"/>
      <point x="761" y="517"/>
      <point x="761" y="466" type="curve" smooth="yes"/>
      <point x="761" y="351"/>
      <point x="716" y="175"/>
      <point x="616" y="175" type="curve" smooth="yes"/>
      <point x="571" y="175"/>
      <point x="541" y="197"/>
    </contour>
  </outline>
</glyph>
<glyph name="P.ss03" format="2">
  <advance width="1266"/>
  <note>
P.ss03
</note>
  <outline>
    <contour>
      <point x="524" y="-271" type="curve" smooth="yes"/>
      <point x="946" y="-271"/>
      <point x="1270" y="85"/>
      <point x="1270" y="459" type="curve" smooth="yes"/>
      <point x="1270" y="747"/>
      <point x="1076" y="938"/>
      <point x="771" y="938" type="curve" smooth="yes"/>
      <point x="345" y="938"/>
      <point x="28" y="580"/>
      <point x="28" y="207" type="curve" smooth="yes"/>
      <point x="28" y="-86"/>
      <point x="225" y="-271"/>
    </contour>
    <contour>
      <point x="70" y="211" type="curve" smooth="yes"/>
      <point x="70" y="567"/>
      <point x="379" y="900"/>
      <point x="769" y="900" type="curve" smooth="yes"/>
      <point x="1049" y="900"/>
      <point x="1228" y="731"/>
      <point x="1228" y="455" type="curve" smooth="yes"/>
      <point x="1228" y="100"/>
      <point x="915" y="-233"/>
      <point x="525" y="-233" type="curve" smooth="yes"/>
      <point x="245" y="-233"/>
      <point x="70" y="-64"/>
    </contour>
    <contour>
      <point x="480" y="710" type="line"/>
      <point x="331" y="0" type="line"/>
      <point x="560" y="0" type="line"/>
      <point x="598" y="182" type="line"/>
      <point x="648" y="182" type="line" smooth="yes"/>
      <point x="910" y="182"/>
      <point x="993" y="363"/>
      <point x="993" y="533" type="curve" smooth="yes"/>
      <point x="993" y="665"/>
      <point x="914" y="710"/>
      <point x="784" y="710" type="curve" smooth="yes"/>
    </contour>
    <contour>
      <point x="680" y="365" type="curve" smooth="yes"/>
      <point x="634" y="365" type="line"/>
      <point x="669" y="527" type="line"/>
      <point x="714" y="527" type="line" smooth="yes"/>
      <point x="742" y="527"/>
      <point x="757" y="518"/>
      <point x="757" y="488" type="curve" smooth="yes"/>
      <point x="757" y="408"/>
      <point x="726" y="365"/>
    </contour>
  </outline>
</glyph>
<glyph name="P.ss04" format="2">
  <advance width="1266"/>
  <note>
P.ss04
</note>
  <outline>
    <contour>
      <point x="331" y="0" type="line"/>
      <point x="560" y="0" type="line"/>
      <point x="598" y="182" type="line"/>
      <point x="648" y="182" type="line" smooth="yes"/>
      <point x="910" y="182"/>
      <point x="993" y="363"/>
      <point x="993" y="533" type="curve" smooth="yes"/>
      <point x="993" y="665"/>
      <point x="914" y="710"/>
      <point x="784" y="710" type="curve" smooth="yes"/>
      <point x="480" y="710" type="line"/>
    </contour>
    <contour>
      <point x="28" y="207" type="curve" smooth="yes"/>
      <point x="28" y="580"/>
      <point x="345" y="938"/>
      <point x="771" y="938" type="curve" smooth="yes"/>
      <point x="1076" y="938"/>
      <point x="1270" y="747"/>
      <point x="1270" y="459" type="curve" smooth="yes"/>
      <point x="1270" y="85"/>
      <point x="946" y="-271"/>
      <point x="524" y="-271" type="curve" smooth="yes"/>
      <point x="225" y="-271"/>
      <point x="28" y="-86"/>
    </contour>
    <contour>
      <point x="680" y="365" type="curve" smooth="yes"/>
      <point x="634" y="365" type="line"/>
      <point x="669" y="527" type="line"/>
      <point x="714" y="527" type="line" smooth="yes"/>
      <point x="742" y="527"/>
      <point x="757" y="518"/>
      <point x="757" y="488" type="curve" smooth="yes"/>
      <point x="757" y="408"/>
      <point x="726" y="365"/>
    </contour>
  </outline>
</glyph>
<glyph name="Q.ss03" format="2">
  <advance width="1266"/>
  <note>
Q.ss03
</note>
  <outline>
    <contour>
      <point x="589" y="175" type="curve" smooth="yes"/>
      <point x="549" y="175"/>
      <point x="517" y="196"/>
      <point x="517" y="248" type="curve" smooth="yes"/>
      <point x="517" y="393"/>
      <point x="573" y="537"/>
      <point x="666" y="537" type="curve" smooth="yes"/>
      <point x="719" y="537"/>
      <point x="736" y="511"/>
      <point x="736" y="463" type="curve" smooth="yes"/>
      <point x="736" y="336"/>
      <point x="687" y="175"/>
    </contour>
    <contour>
      <point x="28" y="207" type="curve" smooth="yes"/>
      <point x="28" y="-86"/>
      <point x="225" y="-271"/>
      <point x="524" y="-271" type="curve" smooth="yes"/>
      <point x="946" y="-271"/>
      <point x="1270" y="85"/>
      <point x="1270" y="459" type="curve" smooth="yes"/>
      <point x="1270" y="747"/>
      <point x="1076" y="938"/>
      <point x="771" y="938" type="curve" smooth="yes"/>
      <point x="345" y="938"/>
      <point x="28" y="580"/>
    </contour>
    <contour>
      <point x="70" y="211" type="curve" smooth="yes"/>
      <point x="70" y="567"/>
      <point x="379" y="900"/>
      <point x="769" y="900" type="curve" smooth="yes"/>
      <point x="1049" y="900"/>
      <point x="1228" y="731"/>
      <point x="1228" y="455" type="curve" smooth="yes"/>
      <point x="1228" y="100"/>
      <point x="915" y="-233"/>
      <point x="525" y="-233" type="curve" smooth="yes"/>
      <point x="245" y="-233"/>
      <point x="70" y="-64"/>
    </contour>
    <contour>
      <point x="276" y="258" type="curve" smooth="yes"/>
      <point x="276" y="88"/>
      <point x="377" y="-13"/>
      <point x="537" y="-13" type="curve" smooth="yes"/>
      <point x="547" y="-13"/>
      <point x="556" y="-13"/>
      <point x="565" y="-12" type="curve"/>
      <point x="635" y="-159" type="line"/>
      <point x="832" y="-52" type="line"/>
      <point x="785" y="45" type="line"/>
      <point x="907" y="133"/>
      <point x="978" y="294"/>
      <point x="978" y="474" type="curve" smooth="yes"/>
      <point x="978" y="624"/>
      <point x="886" y="726"/>
      <point x="687" y="726" type="curve" smooth="yes"/>
      <point x="368" y="726"/>
      <point x="276" y="418"/>
    </contour>
  </outline>
</glyph>
<glyph name="Q.ss04" format="2">
  <advance width="1266"/>
  <note>
Q.ss04
</note>
  <outline>
    <contour>
      <point x="570" y="-13" type="curve" smooth="yes"/>
      <point x="580" y="-13"/>
      <point x="589" y="-13"/>
      <point x="598" y="-12" type="curve"/>
      <point x="668" y="-159" type="line"/>
      <point x="865" y="-69" type="line"/>
      <point x="809" y="45" type="line"/>
      <point x="940" y="133"/>
      <point x="1011" y="294"/>
      <point x="1011" y="474" type="curve" smooth="yes"/>
      <point x="1011" y="624"/>
      <point x="919" y="726"/>
      <point x="720" y="726" type="curve" smooth="yes"/>
      <point x="401" y="726"/>
      <point x="309" y="418"/>
      <point x="309" y="258" type="curve" smooth="yes"/>
      <point x="309" y="88"/>
      <point x="410" y="-13"/>
    </contour>
    <contour>
      <point x="28" y="207" type="curve" smooth="yes"/>
      <point x="28" y="580"/>
      <point x="345" y="938"/>
      <point x="771" y="938" type="curve" smooth="yes"/>
      <point x="1076" y="938"/>
      <point x="1270" y="747"/>
      <point x="1270" y="459" type="curve" smooth="yes"/>
      <point x="1270" y="85"/>
      <point x="946" y="-271"/>
      <point x="524" y="-271" type="curve" smooth="yes"/>
      <point x="225" y="-271"/>
      <point x="28" y="-86"/>
    </contour>
    <contour>
      <point x="550" y="248" type="curve" smooth="yes"/>
      <point x="550" y="393"/>
      <point x="606" y="537"/>
      <point x="699" y="537" type="curve" smooth="yes"/>
      <point x="752" y="537"/>
      <point x="769" y="511"/>
      <point x="769" y="463" type="curve" smooth="yes"/>
      <point x="769" y="336"/>
      <point x="720" y="175"/>
      <point x="622" y="175" type="curve" smooth="yes"/>
      <point x="582" y="175"/>
      <point x="550" y="196"/>
    </contour>
  </outline>
</glyph>
<glyph name="R.ss03" format="2">
  <advance width="1266"/>
  <note>
R.ss03
</note>
  <outline>
    <contour>
      <point x="524" y="-271" type="curve" smooth="yes"/>
      <point x="946" y="-271"/>
      <point x="1270" y="85"/>
      <point x="1270" y="459" type="curve" smooth="yes"/>
      <point x="1270" y="747"/>
      <point x="1076" y="938"/>
      <point x="771" y="938" type="curve" smooth="yes"/>
      <point x="345" y="938"/>
      <point x="28" y="580"/>
      <point x="28" y="207" type="curve" smooth="yes"/>
      <point x="28" y="-86"/>
      <point x="225" y="-271"/>
    </contour>
    <contour>
      <point x="70" y="211" type="curve" smooth="yes"/>
      <point x="70" y="567"/>
      <point x="379" y="900"/>
      <point x="769" y="900" type="curve" smooth="yes"/>
      <point x="1049" y="900"/>
      <point x="1228" y="731"/>
      <point x="1228" y="455" type="curve" smooth="yes"/>
      <point x="1228" y="100"/>
      <point x="915" y="-233"/>
      <point x="525" y="-233" type="curve" smooth="yes"/>
      <point x="245" y="-233"/>
      <point x="70" y="-64"/>
    </contour>
    <contour>
      <point x="456" y="710" type="line"/>
      <point x="306" y="0" type="line"/>
      <point x="535" y="0" type="line"/>
      <point x="577" y="202" type="line"/>
      <point x="637" y="202" type="line"/>
      <point x="653" y="0" type="line"/>
      <point x="876" y="0" type="line"/>
      <point x="842" y="264" type="line"/>
      <point x="931" y="332"/>
      <point x="969" y="415"/>
      <point x="969" y="529" type="curve" smooth="yes"/>
      <point x="969" y="660"/>
      <point x="901" y="710"/>
      <point x="755" y="710" type="curve" smooth="yes"/>
    </contour>
    <contour>
      <point x="664" y="373" type="curve" smooth="yes"/>
      <point x="613" y="373" type="line"/>
      <point x="646" y="527" type="line"/>
      <point x="691" y="527" type="line" smooth="yes"/>
      <point x="720" y="527"/>
      <point x="734" y="514"/>
      <point x="734" y="484" type="curve" smooth="yes"/>
      <point x="734" y="453"/>
      <point x="719" y="373"/>
    </contour>
  </outline>
</glyph>
<glyph name="R.ss04" format="2">
  <advance width="1266"/>
  <note>
R.ss04
</note>
  <outline>
    <contour>
      <point x="306" y="0" type="line"/>
      <point x="535" y="0" type="line"/>
      <point x="577" y="202" type="line"/>
      <point x="637" y="202" type="line"/>
      <point x="653" y="0" type="line"/>
      <point x="876" y="0" type="line"/>
      <point x="842" y="264" type="line"/>
      <point x="931" y="332"/>
      <point x="969" y="415"/>
      <point x="969" y="529" type="curve" smooth="yes"/>
      <point x="969" y="660"/>
      <point x="901" y="710"/>
      <point x="755" y="710" type="curve" smooth="yes"/>
      <point x="456" y="710" type="line"/>
    </contour>
    <contour>
      <point x="28" y="207" type="curve" smooth="yes"/>
      <point x="28" y="580"/>
      <point x="345" y="938"/>
      <point x="771" y="938" type="curve" smooth="yes"/>
      <point x="1076" y="938"/>
      <point x="1270" y="747"/>
      <point x="1270" y="459" type="curve" smooth="yes"/>
      <point x="1270" y="85"/>
      <point x="946" y="-271"/>
      <point x="524" y="-271" type="curve" smooth="yes"/>
      <point x="225" y="-271"/>
      <point x="28" y="-86"/>
    </contour>
    <contour>
      <point x="664" y="373" type="curve" smooth="yes"/>
      <point x="613" y="373" type="line"/>
      <point x="646" y="527" type="line"/>
      <point x="691" y="527" type="line" smooth="yes"/>
      <point x="720" y="527"/>
      <point x="734" y="514"/>
      <point x="734" y="484" type="curve" smooth="yes"/>
      <point x="734" y="453"/>
      <point x="719" y="373"/>
    </contour>
  </outline>
</glyph>
<glyph name="S.ss03" format="2">
  <advance width="1266"/>
  <note>
S.ss03
</note>
  <outline>
    <contour>
      <point x="524" y="-271" type="curve" smooth="yes"/>
      <point x="946" y="-271"/>
      <point x="1270" y="85"/>
      <point x="1270" y="459" type="curve" smooth="yes"/>
      <point x="1270" y="747"/>
      <point x="1076" y="938"/>
      <point x="771" y="938" type="curve" smooth="yes"/>
      <point x="345" y="938"/>
      <point x="28" y="580"/>
      <point x="28" y="207" type="curve" smooth="yes"/>
      <point x="28" y="-86"/>
      <point x="225" y="-271"/>
    </contour>
    <contour>
      <point x="70" y="211" type="curve" smooth="yes"/>
      <point x="70" y="567"/>
      <point x="379" y="900"/>
      <point x="769" y="900" type="curve" smooth="yes"/>
      <point x="1049" y="900"/>
      <point x="1228" y="731"/>
      <point x="1228" y="455" type="curve" smooth="yes"/>
      <point x="1228" y="100"/>
      <point x="915" y="-233"/>
      <point x="525" y="-233" type="curve" smooth="yes"/>
      <point x="245" y="-233"/>
      <point x="70" y="-64"/>
    </contour>
    <contour>
      <point x="378" y="195" type="curve"/>
      <point x="328" y="15" type="line"/>
      <point x="328" y="15"/>
      <point x="445" y="-14"/>
      <point x="569" y="-14" type="curve" smooth="yes"/>
      <point x="865" y="-14"/>
      <point x="926" y="161"/>
      <point x="926" y="274" type="curve" smooth="yes"/>
      <point x="926" y="356"/>
      <point x="893" y="412"/>
      <point x="795" y="440" type="curve" smooth="yes"/>
      <point x="689" y="470" type="line" smooth="yes"/>
      <point x="662" y="478"/>
      <point x="655" y="484"/>
      <point x="655" y="500" type="curve" smooth="yes"/>
      <point x="655" y="525"/>
      <point x="671" y="534"/>
      <point x="718" y="534" type="curve" smooth="yes"/>
      <point x="810" y="534"/>
      <point x="911" y="516"/>
      <point x="911" y="516" type="curve"/>
      <point x="960" y="700" type="line"/>
      <point x="960" y="700"/>
      <point x="841" y="726"/>
      <point x="730" y="726" type="curve" smooth="yes"/>
      <point x="472" y="726"/>
      <point x="411" y="586"/>
      <point x="411" y="467" type="curve" smooth="yes"/>
      <point x="411" y="375"/>
      <point x="448" y="316"/>
      <point x="538" y="286" type="curve" smooth="yes"/>
      <point x="628" y="256" type="line" smooth="yes"/>
      <point x="665" y="244"/>
      <point x="676" y="238"/>
      <point x="676" y="217" type="curve" smooth="yes"/>
      <point x="676" y="193"/>
      <point x="654" y="181"/>
      <point x="613" y="181" type="curve" smooth="yes"/>
      <point x="535" y="181"/>
      <point x="378" y="195"/>
    </contour>
  </outline>
</glyph>
<glyph name="T.ss04" format="2">
  <advance width="1266"/>
  <note>
T.ss04
</note>
  <outline>
    <contour>
      <point x="961" y="520" type="line"/>
      <point x="1002" y="710" type="line"/>
      <point x="472" y="710" type="line"/>
      <point x="432" y="520" type="line"/>
      <point x="582" y="520" type="line"/>
      <point x="473" y="0" type="line"/>
      <point x="702" y="0" type="line"/>
      <point x="811" y="520" type="line"/>
    </contour>
    <contour>
      <point x="28" y="207" type="curve" smooth="yes"/>
      <point x="28" y="580"/>
      <point x="345" y="938"/>
      <point x="771" y="938" type="curve" smooth="yes"/>
      <point x="1076" y="938"/>
      <point x="1270" y="747"/>
      <point x="1270" y="459" type="curve" smooth="yes"/>
      <point x="1270" y="85"/>
      <point x="946" y="-271"/>
      <point x="524" y="-271" type="curve" smooth="yes"/>
      <point x="225" y="-271"/>
      <point x="28" y="-86"/>
    </contour>
  </outline>
</glyph>
<glyph name="T.ss06" format="2">
  <advance width="1222"/>
  <note>
T.ss06
</note>
  <outline>
    <contour>
      <point x="-80" y="-230" type="line"/>
      <point x="162" y="904" type="line"/>
      <point x="1296" y="904" type="line"/>
      <point x="1054" y="-230" type="line"/>
    </contour>
    <contour>
      <point x="441" y="710" type="line"/>
      <point x="401" y="520" type="line"/>
      <point x="551" y="520" type="line"/>
      <point x="442" y="0" type="line"/>
      <point x="671" y="0" type="line"/>
      <point x="780" y="520" type="line"/>
      <point x="930" y="520" type="line"/>
      <point x="971" y="710" type="line"/>
    </contour>
  </outline>
</glyph>
<glyph name="U.ss03" format="2">
  <advance width="1266"/>
  <note>
U.ss03
</note>
  <outline>
    <contour>
      <point x="524" y="-271" type="curve" smooth="yes"/>
      <point x="946" y="-271"/>
      <point x="1270" y="85"/>
      <point x="1270" y="459" type="curve" smooth="yes"/>
      <point x="1270" y="747"/>
      <point x="1076" y="938"/>
      <point x="771" y="938" type="curve" smooth="yes"/>
      <point x="345" y="938"/>
      <point x="28" y="580"/>
      <point x="28" y="207" type="curve" smooth="yes"/>
      <point x="28" y="-86"/>
      <point x="225" y="-271"/>
    </contour>
    <contour>
      <point x="70" y="211" type="curve" smooth="yes"/>
      <point x="70" y="567"/>
      <point x="379" y="900"/>
      <point x="769" y="900" type="curve" smooth="yes"/>
      <point x="1049" y="900"/>
      <point x="1228" y="731"/>
      <point x="1228" y="455" type="curve" smooth="yes"/>
      <point x="1228" y="100"/>
      <point x="915" y="-233"/>
      <point x="525" y="-233" type="curve" smooth="yes"/>
      <point x="245" y="-233"/>
      <point x="70" y="-64"/>
    </contour>
    <contour>
      <point x="445" y="710" type="line"/>
      <point x="350" y="270" type="line" smooth="yes"/>
      <point x="312" y="94"/>
      <point x="377" y="-14"/>
      <point x="605" y="-14" type="curve" smooth="yes"/>
      <point x="758" y="-14"/>
      <point x="858" y="36"/>
      <point x="902" y="240" type="curve" smooth="yes"/>
      <point x="1003" y="710" type="line"/>
      <point x="774" y="710" type="line"/>
      <point x="671" y="231" type="line" smooth="yes"/>
      <point x="663" y="194"/>
      <point x="649" y="178"/>
      <point x="615" y="178" type="curve" smooth="yes"/>
      <point x="581" y="178"/>
      <point x="563" y="194"/>
      <point x="571" y="231" type="curve" smooth="yes"/>
      <point x="674" y="710" type="line"/>
    </contour>
  </outline>
</glyph>
<glyph name="U.ss04" format="2">
  <advance width="1266"/>
  <note>
U.ss04
</note>
  <outline>
    <contour>
      <point x="571" y="231" type="curve" smooth="yes"/>
      <point x="674" y="710" type="line"/>
      <point x="445" y="710" type="line"/>
      <point x="350" y="270" type="line" smooth="yes"/>
      <point x="312" y="94"/>
      <point x="377" y="-14"/>
      <point x="605" y="-14" type="curve" smooth="yes"/>
      <point x="758" y="-14"/>
      <point x="858" y="36"/>
      <point x="902" y="240" type="curve" smooth="yes"/>
      <point x="1003" y="710" type="line"/>
      <point x="774" y="710" type="line"/>
      <point x="671" y="231" type="line" smooth="yes"/>
      <point x="663" y="194"/>
      <point x="649" y="178"/>
      <point x="615" y="178" type="curve" smooth="yes"/>
      <point x="581" y="178"/>
      <point x="563" y="194"/>
    </contour>
    <contour>
      <point x="28" y="207" type="curve" smooth="yes"/>
      <point x="28" y="580"/>
      <point x="345" y="938"/>
      <point x="771" y="938" type="curve" smooth="yes"/>
      <point x="1076" y="938"/>
      <point x="1270" y="747"/>
      <point x="1270" y="459" type="curve" smooth="yes"/>
      <point x="1270" y="85"/>
      <point x="946" y="-271"/>
      <point x="524" y="-271" type="curve" smooth="yes"/>
      <point x="225" y="-271"/>
      <point x="28" y="-86"/>
    </contour>
  </outline>
</glyph>
<glyph name="V.ss04" format="2">
  <advance width="1266"/>
  <note>
V.ss04
</note>
  <outline>
    <contour>
      <point x="429" y="710" type="line"/>
      <point x="423" y="0" type="line"/>
      <point x="765" y="0" type="line"/>
      <point x="1041" y="710" type="line"/>
      <point x="801" y="710" type="line"/>
      <point x="656" y="234" type="line"/>
      <point x="631" y="234" type="line"/>
      <point x="669" y="710" type="line"/>
    </contour>
    <contour>
      <point x="28" y="207" type="curve" smooth="yes"/>
      <point x="28" y="580"/>
      <point x="345" y="938"/>
      <point x="771" y="938" type="curve" smooth="yes"/>
      <point x="1076" y="938"/>
      <point x="1270" y="747"/>
      <point x="1270" y="459" type="curve" smooth="yes"/>
      <point x="1270" y="85"/>
      <point x="946" y="-271"/>
      <point x="524" y="-271" type="curve" smooth="yes"/>
      <point x="225" y="-271"/>
      <point x="28" y="-86"/>
    </contour>
  </outline>
</glyph>
<glyph name="W.ss03" format="2">
  <advance width="1266"/>
  <note>
W.ss03
</note>
  <outline>
    <contour>
      <point x="473" y="234" type="line"/>
      <point x="551" y="700" type="line"/>
      <point x="330" y="700" type="line"/>
      <point x="247" y="0" type="line"/>
      <point x="542" y="0" type="line"/>
      <point x="670" y="439" type="line"/>
      <point x="618" y="0" type="line"/>
      <point x="920" y="0" type="line"/>
      <point x="1127" y="700" type="line"/>
      <point x="906" y="700" type="line"/>
      <point x="797" y="234" type="line"/>
      <point x="773" y="234" type="line"/>
      <point x="824" y="690" type="line"/>
      <point x="629" y="690" type="line"/>
      <point x="497" y="234" type="line"/>
    </contour>
    <contour>
      <point x="28" y="207" type="curve" smooth="yes"/>
      <point x="28" y="-86"/>
      <point x="225" y="-271"/>
      <point x="524" y="-271" type="curve" smooth="yes"/>
      <point x="946" y="-271"/>
      <point x="1270" y="85"/>
      <point x="1270" y="459" type="curve" smooth="yes"/>
      <point x="1270" y="747"/>
      <point x="1076" y="938"/>
      <point x="771" y="938" type="curve" smooth="yes"/>
      <point x="345" y="938"/>
      <point x="28" y="580"/>
    </contour>
    <contour>
      <point x="70" y="211" type="curve" smooth="yes"/>
      <point x="70" y="567"/>
      <point x="379" y="900"/>
      <point x="769" y="900" type="curve" smooth="yes"/>
      <point x="1049" y="900"/>
      <point x="1228" y="731"/>
      <point x="1228" y="455" type="curve" smooth="yes"/>
      <point x="1228" y="100"/>
      <point x="915" y="-233"/>
      <point x="525" y="-233" type="curve" smooth="yes"/>
      <point x="245" y="-233"/>
      <point x="70" y="-64"/>
    </contour>
  </outline>
</glyph>
<glyph name="W.ss04" format="2">
  <advance width="1266"/>
  <note>
W.ss04
</note>
  <outline>
    <contour>
      <point x="458" y="234" type="line"/>
      <point x="433" y="234" type="line"/>
      <point x="500" y="710" type="line"/>
      <point x="275" y="710" type="line"/>
      <point x="203" y="0" type="line"/>
      <point x="524" y="0" type="line"/>
      <point x="663" y="459" type="line"/>
      <point x="621" y="0" type="line"/>
      <point x="948" y="0" type="line"/>
      <point x="1167" y="710" type="line"/>
      <point x="941" y="710" type="line"/>
      <point x="823" y="234" type="line"/>
      <point x="798" y="234" type="line"/>
      <point x="838" y="700" type="line"/>
      <point x="601" y="700" type="line"/>
    </contour>
    <contour>
      <point x="28" y="207" type="curve" smooth="yes"/>
      <point x="28" y="580"/>
      <point x="345" y="938"/>
      <point x="771" y="938" type="curve" smooth="yes"/>
      <point x="1076" y="938"/>
      <point x="1270" y="747"/>
      <point x="1270" y="459" type="curve" smooth="yes"/>
      <point x="1270" y="85"/>
      <point x="946" y="-271"/>
      <point x="524" y="-271" type="curve" smooth="yes"/>
      <point x="225" y="-271"/>
      <point x="28" y="-86"/>
    </contour>
  </outline>
</glyph>
<glyph name="X.ss03" format="2">
  <advance width="1266"/>
  <note>
X.ss03
</note>
  <outline>
    <contour>
      <point x="524" y="-271" type="curve" smooth="yes"/>
      <point x="946" y="-271"/>
      <point x="1270" y="85"/>
      <point x="1270" y="459" type="curve" smooth="yes"/>
      <point x="1270" y="747"/>
      <point x="1076" y="938"/>
      <point x="771" y="938" type="curve" smooth="yes"/>
      <point x="345" y="938"/>
      <point x="28" y="580"/>
      <point x="28" y="207" type="curve" smooth="yes"/>
      <point x="28" y="-86"/>
      <point x="225" y="-271"/>
    </contour>
    <contour>
      <point x="70" y="211" type="curve" smooth="yes"/>
      <point x="70" y="567"/>
      <point x="379" y="900"/>
      <point x="769" y="900" type="curve" smooth="yes"/>
      <point x="1049" y="900"/>
      <point x="1228" y="731"/>
      <point x="1228" y="455" type="curve" smooth="yes"/>
      <point x="1228" y="100"/>
      <point x="915" y="-233"/>
      <point x="525" y="-233" type="curve" smooth="yes"/>
      <point x="245" y="-233"/>
      <point x="70" y="-64"/>
    </contour>
    <contour>
      <point x="493" y="349" type="line"/>
      <point x="267" y="0" type="line"/>
      <point x="499" y="0" type="line"/>
      <point x="618" y="226" type="line"/>
      <point x="644" y="0" type="line"/>
      <point x="877" y="0" type="line"/>
      <point x="808" y="379" type="line"/>
      <point x="1025" y="710" type="line"/>
      <point x="801" y="710" type="line"/>
      <point x="677" y="504" type="line"/>
      <point x="657" y="710" type="line"/>
      <point x="426" y="710" type="line"/>
    </contour>
  </outline>
</glyph>
<glyph name="Y.ss03" format="2">
  <advance width="1266"/>
  <note>
Y.ss03
</note>
  <outline>
    <contour>
      <point x="524" y="-271" type="curve" smooth="yes"/>
      <point x="946" y="-271"/>
      <point x="1270" y="85"/>
      <point x="1270" y="459" type="curve" smooth="yes"/>
      <point x="1270" y="747"/>
      <point x="1076" y="938"/>
      <point x="771" y="938" type="curve" smooth="yes"/>
      <point x="345" y="938"/>
      <point x="28" y="580"/>
      <point x="28" y="207" type="curve" smooth="yes"/>
      <point x="28" y="-86"/>
      <point x="225" y="-271"/>
    </contour>
    <contour>
      <point x="70" y="211" type="curve" smooth="yes"/>
      <point x="70" y="567"/>
      <point x="379" y="900"/>
      <point x="769" y="900" type="curve" smooth="yes"/>
      <point x="1049" y="900"/>
      <point x="1228" y="731"/>
      <point x="1228" y="455" type="curve" smooth="yes"/>
      <point x="1228" y="100"/>
      <point x="915" y="-233"/>
      <point x="525" y="-233" type="curve" smooth="yes"/>
      <point x="245" y="-233"/>
      <point x="70" y="-64"/>
    </contour>
    <contour>
      <point x="651" y="710" type="line"/>
      <point x="428" y="710" type="line"/>
      <point x="515" y="240" type="line"/>
      <point x="467" y="0" type="line"/>
      <point x="694" y="0" type="line"/>
      <point x="743" y="240" type="line"/>
      <point x="1035" y="710" type="line"/>
      <point x="791" y="710" type="line"/>
      <point x="675" y="455" type="line"/>
    </contour>
  </outline>
</glyph>
<glyph name="Y.ss04" format="2">
  <advance width="1266"/>
  <note>
Y.ss04
</note>
  <outline>
    <contour>
      <point x="428" y="710" type="line"/>
      <point x="515" y="240" type="line"/>
      <point x="467" y="0" type="line"/>
      <point x="694" y="0" type="line"/>
      <point x="743" y="240" type="line"/>
      <point x="1035" y="710" type="line"/>
      <point x="791" y="710" type="line"/>
      <point x="675" y="455" type="line"/>
      <point x="651" y="710" type="line"/>
    </contour>
    <contour>
      <point x="28" y="207" type="curve" smooth="yes"/>
      <point x="28" y="580"/>
      <point x="345" y="938"/>
      <point x="771" y="938" type="curve" smooth="yes"/>
      <point x="1076" y="938"/>
      <point x="1270" y="747"/>
      <point x="1270" y="459" type="curve" smooth="yes"/>
      <point x="1270" y="85"/>
      <point x="946" y="-271"/>
      <point x="524" y="-271" type="curve" smooth="yes"/>
      <point x="225" y="-271"/>
      <point x="28" y="-86"/>
    </contour>
  </outline>
</glyph>
<glyph name="Z.ss03" format="2">
  <advance width="1266"/>
  <note>
Z.ss03
</note>
  <outline>
    <contour>
      <point x="524" y="-271" type="curve" smooth="yes"/>
      <point x="946" y="-271"/>
      <point x="1270" y="85"/>
      <point x="1270" y="459" type="curve" smooth="yes"/>
      <point x="1270" y="747"/>
      <point x="1076" y="938"/>
      <point x="771" y="938" type="curve" smooth="yes"/>
      <point x="345" y="938"/>
      <point x="28" y="580"/>
      <point x="28" y="207" type="curve" smooth="yes"/>
      <point x="28" y="-86"/>
      <point x="225" y="-271"/>
    </contour>
    <contour>
      <point x="70" y="211" type="curve" smooth="yes"/>
      <point x="70" y="567"/>
      <point x="379" y="900"/>
      <point x="769" y="900" type="curve" smooth="yes"/>
      <point x="1049" y="900"/>
      <point x="1228" y="731"/>
      <point x="1228" y="455" type="curve" smooth="yes"/>
      <point x="1228" y="100"/>
      <point x="915" y="-233"/>
      <point x="525" y="-233" type="curve" smooth="yes"/>
      <point x="245" y="-233"/>
      <point x="70" y="-64"/>
    </contour>
    <contour>
      <point x="344" y="190" type="line"/>
      <point x="304" y="0" type="line"/>
      <point x="869" y="0" type="line"/>
      <point x="909" y="190" type="line"/>
      <point x="671" y="190" type="line"/>
      <point x="677" y="215" type="line"/>
      <point x="959" y="511" type="line"/>
      <point x="1001" y="710" type="line"/>
      <point x="462" y="710" type="line"/>
      <point x="421" y="520" type="line"/>
      <point x="639" y="520" type="line"/>
      <point x="634" y="495" type="line"/>
    </contour>
  </outline>
</glyph>
<glyph name="Z.ss04" format="2">
  <advance width="1266"/>
  <note>
Z.ss04
</note>
  <outline>
    <contour>
      <point x="959" y="511" type="line"/>
      <point x="1001" y="710" type="line"/>
      <point x="462" y="710" type="line"/>
      <point x="421" y="520" type="line"/>
      <point x="639" y="520" type="line"/>
      <point x="634" y="495" type="line"/>
      <point x="344" y="190" type="line"/>
      <point x="304" y="0" type="line"/>
      <point x="869" y="0" type="line"/>
      <point x="909" y="190" type="line"/>
      <point x="671" y="190" type="line"/>
      <point x="677" y="215" type="line"/>
    </contour>
    <contour>
      <point x="28" y="207" type="curve" smooth="yes"/>
      <point x="28" y="580"/>
      <point x="345" y="938"/>
      <point x="771" y="938" type="curve" smooth="yes"/>
      <point x="1076" y="938"/>
      <point x="1270" y="747"/>
      <point x="1270" y="459" type="curve" smooth="yes"/>
      <point x="1270" y="85"/>
      <point x="946" y="-271"/>
      <point x="524" y="-271" type="curve" smooth="yes"/>
      <point x="225" y="-271"/>
      <point x="28" y="-86"/>
    </contour>
  </outline>
</glyph>
<glyph name=".notdef" format="2">
  <advance width="562"/>
  <note>
.notdef
</note>
  <outline>
    <contour>
      <point x="608" y="710" type="line"/>
      <point x="146" y="710" type="line"/>
      <point x="-48" y="-200" type="line"/>
      <point x="414" y="-200" type="line"/>
    </contour>
    <contour>
      <point x="379" y="-158" type="line"/>
      <point x="5" y="-158" type="line"/>
      <point x="181" y="668" type="line"/>
      <point x="555" y="668" type="line"/>
    </contour>
  </outline>
</glyph>
<glyph name="acutecomb.case" format="2">
  <advance width="0"/>
  <note>
acutecomb.case
</note>
  <outline>
    <contour>
      <point x="185" y="751" type="line"/>
      <point x="475" y="830" type="line"/>
      <point x="406" y="995" type="line"/>
      <point x="136" y="870" type="line"/>
    </contour>
  </outline>
</glyph>
<glyph name="eight.ss03" format="2">
  <advance width="1266"/>
  <note>
eight.ss03
</note>
  <outline>
    <contour>
      <point x="524" y="-271" type="curve" smooth="yes"/>
      <point x="946" y="-271"/>
      <point x="1270" y="85"/>
      <point x="1270" y="459" type="curve" smooth="yes"/>
      <point x="1270" y="747"/>
      <point x="1076" y="938"/>
      <point x="771" y="938" type="curve" smooth="yes"/>
      <point x="345" y="938"/>
      <point x="28" y="580"/>
      <point x="28" y="207" type="curve" smooth="yes"/>
      <point x="28" y="-86"/>
      <point x="225" y="-271"/>
    </contour>
    <contour>
      <point x="70" y="211" type="curve" smooth="yes"/>
      <point x="70" y="567"/>
      <point x="379" y="900"/>
      <point x="769" y="900" type="curve" smooth="yes"/>
      <point x="1049" y="900"/>
      <point x="1228" y="731"/>
      <point x="1228" y="455" type="curve" smooth="yes"/>
      <point x="1228" y="100"/>
      <point x="915" y="-233"/>
      <point x="525" y="-233" type="curve" smooth="yes"/>
      <point x="245" y="-233"/>
      <point x="70" y="-64"/>
    </contour>
    <contour>
      <point x="351" y="148" type="curve" smooth="yes"/>
      <point x="351" y="42"/>
      <point x="432" y="-14"/>
      <point x="592" y="-14" type="curve" smooth="yes"/>
      <point x="789" y="-14"/>
      <point x="893" y="72"/>
      <point x="893" y="234" type="curve" smooth="yes"/>
      <point x="893" y="285"/>
      <point x="866" y="328"/>
      <point x="809" y="350" type="curve"/>
      <point x="916" y="398"/>
      <point x="937" y="469"/>
      <point x="937" y="539" type="curve" smooth="yes"/>
      <point x="937" y="644"/>
      <point x="842" y="690"/>
      <point x="708" y="690" type="curve" smooth="yes"/>
      <point x="546" y="690"/>
      <point x="424" y="621"/>
      <point x="424" y="474" type="curve" smooth="yes"/>
      <point x="424" y="420"/>
      <point x="457" y="379"/>
      <point x="494" y="353" type="curve"/>
      <point x="393" y="315"/>
      <point x="351" y="232"/>
    </contour>
    <contour>
      <point x="575" y="192" type="curve" smooth="yes"/>
      <point x="575" y="217"/>
      <point x="588" y="242"/>
      <point x="622" y="263" type="curve"/>
      <point x="648" y="263" type="line"/>
      <point x="660" y="254"/>
      <point x="669" y="238"/>
      <point x="669" y="214" type="curve" smooth="yes"/>
      <point x="669" y="179"/>
      <point x="654" y="156"/>
      <point x="616" y="156" type="curve" smooth="yes"/>
      <point x="586" y="156"/>
      <point x="575" y="171"/>
    </contour>
    <contour>
      <point x="639" y="463" type="curve" smooth="yes"/>
      <point x="639" y="488"/>
      <point x="652" y="521"/>
      <point x="688" y="521" type="curve" smooth="yes"/>
      <point x="713" y="521"/>
      <point x="722" y="507"/>
      <point x="722" y="491" type="curve" smooth="yes"/>
      <point x="722" y="467"/>
      <point x="709" y="442"/>
      <point x="682" y="423" type="curve"/>
      <point x="655" y="423" type="line"/>
      <point x="645" y="430"/>
      <point x="639" y="445"/>
    </contour>
  </outline>
</glyph>
<glyph name="eight.tosf" format="2">
  <advance width="560"/>
  <note>
eight.pnum
</note>
  <outline>
    <contour>
      <point x="217" y="-13" type="curve" smooth="yes"/>
      <point x="369" y="-13"/>
      <point x="479" y="46"/>
      <point x="479" y="160" type="curve" smooth="yes"/>
      <point x="479" y="211"/>
      <point x="446" y="251"/>
      <point x="413" y="267" type="curve"/>
      <point x="483" y="300"/>
      <point x="506" y="355"/>
      <point x="506" y="402" type="curve" smooth="yes"/>
      <point x="506" y="484"/>
      <point x="439" y="535"/>
      <point x="321" y="535" type="curve" smooth="yes"/>
      <point x="196" y="535"/>
      <point x="90" y="476"/>
      <point x="90" y="358" type="curve" smooth="yes"/>
      <point x="90" y="318"/>
      <point x="108" y="291"/>
      <point x="146" y="269" type="curve"/>
      <point x="61" y="233"/>
      <point x="28" y="176"/>
      <point x="28" y="117" type="curve" smooth="yes"/>
      <point x="28" y="36"/>
      <point x="105" y="-13"/>
    </contour>
    <contour>
      <point x="205" y="163" type="curve" smooth="yes"/>
      <point x="205" y="189"/>
      <point x="243" y="204"/>
      <point x="243" y="204" type="curve"/>
      <point x="281" y="204" type="line"/>
      <point x="281" y="204"/>
      <point x="303" y="189"/>
      <point x="303" y="168" type="curve" smooth="yes"/>
      <point x="303" y="149"/>
      <point x="282" y="138"/>
      <point x="249" y="138" type="curve" smooth="yes"/>
      <point x="216" y="138"/>
      <point x="205" y="150"/>
    </contour>
    <contour>
      <point x="251" y="347" type="curve" smooth="yes"/>
      <point x="251" y="369"/>
      <point x="271" y="381"/>
      <point x="299" y="381" type="curve" smooth="yes"/>
      <point x="322" y="381"/>
      <point x="336" y="372"/>
      <point x="336" y="359" type="curve" smooth="yes"/>
      <point x="336" y="335"/>
      <point x="305" y="324"/>
      <point x="305" y="324" type="curve"/>
      <point x="269" y="324" type="line"/>
      <point x="269" y="324"/>
      <point x="251" y="332"/>
    </contour>
  </outline>
</glyph>
<glyph name="five.ss05" format="2">
  <advance width="1183"/>
  <note>
five.ss05
</note>
  <outline>
    <contour>
      <point x="-80" y="-230" type="line"/>
      <point x="162" y="904" type="line"/>
      <point x="1296" y="904" type="line"/>
      <point x="1054" y="-230" type="line"/>
    </contour>
    <contour>
      <point x="190" y="870" type="line"/>
      <point x="-36" y="-196" type="line"/>
      <point x="1026" y="-196" type="line"/>
      <point x="1252" y="870" type="line"/>
    </contour>
    <contour>
      <point x="344" y="201" type="curve"/>
      <point x="290" y="26" type="line"/>
      <point x="290" y="26"/>
      <point x="418" y="-14"/>
      <point x="539" y="-14" type="curve" smooth="yes"/>
      <point x="769" y="-14"/>
      <point x="847" y="128"/>
      <point x="847" y="262" type="curve" smooth="yes"/>
      <point x="847" y="392"/>
      <point x="773" y="434"/>
      <point x="668" y="434" type="curve" smooth="yes"/>
      <point x="605" y="434"/>
      <point x="569" y="419"/>
      <point x="569" y="419" type="curve"/>
      <point x="587" y="483" type="line"/>
      <point x="854" y="483" type="line"/>
      <point x="895" y="673" type="line"/>
      <point x="456" y="673" type="line"/>
      <point x="353" y="246" type="line"/>
      <point x="494" y="228" type="line"/>
      <point x="494" y="228"/>
      <point x="529" y="248"/>
      <point x="572" y="248" type="curve" smooth="yes"/>
      <point x="598" y="248"/>
      <point x="615" y="242"/>
      <point x="615" y="216" type="curve" smooth="yes"/>
      <point x="615" y="188"/>
      <point x="597" y="175"/>
      <point x="541" y="175" type="curve" smooth="yes"/>
      <point x="472" y="175"/>
      <point x="344" y="201"/>
    </contour>
  </outline>
</glyph>
<glyph name="five.tosf" format="2">
  <advance width="560"/>
  <note>
five.pnum
</note>
  <outline>
    <contour>
      <point x="276" y="365" type="line"/>
      <point x="506" y="365" type="line"/>
      <point x="539" y="520" type="line"/>
      <point x="159" y="520" type="line"/>
      <point x="72" y="213" type="line"/>
      <point x="177" y="184" type="line"/>
      <point x="201" y="192"/>
      <point x="234" y="197"/>
      <point x="265" y="197" type="curve" smooth="yes"/>
      <point x="301" y="197"/>
      <point x="316" y="189"/>
      <point x="316" y="174" type="curve" smooth="yes"/>
      <point x="316" y="151"/>
      <point x="296" y="137"/>
      <point x="255" y="137" type="curve" smooth="yes"/>
      <point x="171" y="137"/>
      <point x="58" y="157"/>
      <point x="58" y="157" type="curve"/>
      <point x="14" y="14" type="line"/>
      <point x="14" y="14"/>
      <point x="135" y="-14"/>
      <point x="232" y="-14" type="curve" smooth="yes"/>
      <point x="404" y="-14"/>
      <point x="500" y="69"/>
      <point x="500" y="207" type="curve" smooth="yes"/>
      <point x="500" y="286"/>
      <point x="442" y="328"/>
      <point x="346" y="328" type="curve" smooth="yes"/>
      <point x="303" y="328"/>
      <point x="278" y="322"/>
      <point x="256" y="315" type="curve"/>
    </contour>
  </outline>
</glyph>
<glyph name="four.tosf" format="2">
  <advance width="560"/>
  <note>
four.pnum
</note>
  <outline>
    <contour>
      <point x="235" y="520" type="line"/>
      <point x="54" y="202" type="line"/>
      <point x="28" y="77" type="line"/>
      <point x="267" y="77" type="line"/>
      <point x="250" y="0" type="line"/>
      <point x="414" y="0" type="line"/>
      <point x="431" y="77" type="line"/>
      <point x="479" y="77" type="line"/>
      <point x="513" y="239" type="line"/>
      <point x="465" y="239" type="line"/>
      <point x="478" y="297" type="line"/>
      <point x="314" y="297" type="line"/>
      <point x="299" y="229" type="line"/>
      <point x="237" y="229" type="line"/>
      <point x="441" y="520" type="line"/>
    </contour>
  </outline>
</glyph>
<glyph name="nine.ss03" format="2">
  <advance width="1266"/>
  <note>
nine.ss03
</note>
  <outline>
    <contour>
      <point x="524" y="-271" type="curve" smooth="yes"/>
      <point x="946" y="-271"/>
      <point x="1270" y="85"/>
      <point x="1270" y="459" type="curve" smooth="yes"/>
      <point x="1270" y="747"/>
      <point x="1076" y="938"/>
      <point x="771" y="938" type="curve" smooth="yes"/>
      <point x="345" y="938"/>
      <point x="28" y="580"/>
      <point x="28" y="207" type="curve" smooth="yes"/>
      <point x="28" y="-86"/>
      <point x="225" y="-271"/>
    </contour>
    <contour>
      <point x="70" y="211" type="curve" smooth="yes"/>
      <point x="70" y="567"/>
      <point x="379" y="900"/>
      <point x="769" y="900" type="curve" smooth="yes"/>
      <point x="1049" y="900"/>
      <point x="1228" y="731"/>
      <point x="1228" y="455" type="curve" smooth="yes"/>
      <point x="1228" y="100"/>
      <point x="915" y="-233"/>
      <point x="525" y="-233" type="curve" smooth="yes"/>
      <point x="245" y="-233"/>
      <point x="70" y="-64"/>
    </contour>
    <contour>
      <point x="402" y="190" type="curve"/>
      <point x="350" y="21" type="line"/>
      <point x="350" y="21"/>
      <point x="494" y="-14"/>
      <point x="599" y="-14" type="curve" smooth="yes"/>
      <point x="868" y="-14"/>
      <point x="930" y="247"/>
      <point x="930" y="447" type="curve" smooth="yes"/>
      <point x="930" y="619"/>
      <point x="842" y="690"/>
      <point x="696" y="690" type="curve" smooth="yes"/>
      <point x="492" y="690"/>
      <point x="409" y="559"/>
      <point x="409" y="408" type="curve" smooth="yes"/>
      <point x="409" y="284"/>
      <point x="470" y="240"/>
      <point x="561" y="240" type="curve" smooth="yes"/>
      <point x="637" y="240"/>
      <point x="679" y="265"/>
      <point x="679" y="265" type="curve"/>
      <point x="682" y="213"/>
      <point x="660" y="173"/>
      <point x="584" y="173" type="curve" smooth="yes"/>
      <point x="521" y="173"/>
      <point x="402" y="190"/>
    </contour>
    <contour>
      <point x="622" y="446" type="curve" smooth="yes"/>
      <point x="622" y="478"/>
      <point x="637" y="508"/>
      <point x="675" y="508" type="curve" smooth="yes"/>
      <point x="703" y="508"/>
      <point x="723" y="493"/>
      <point x="723" y="467" type="curve" smooth="yes"/>
      <point x="723" y="454"/>
      <point x="723" y="440"/>
      <point x="718" y="424" type="curve"/>
      <point x="718" y="424"/>
      <point x="692" y="403"/>
      <point x="657" y="403" type="curve" smooth="yes"/>
      <point x="634" y="403"/>
      <point x="622" y="419"/>
    </contour>
  </outline>
</glyph>
<glyph name="nine.ss05" format="2">
  <advance width="1183"/>
  <note>
nine.ss05
</note>
  <outline>
    <contour>
      <point x="-80" y="-230" type="line"/>
      <point x="162" y="904" type="line"/>
      <point x="1296" y="904" type="line"/>
      <point x="1054" y="-230" type="line"/>
    </contour>
    <contour>
      <point x="190" y="870" type="line"/>
      <point x="-36" y="-196" type="line"/>
      <point x="1026" y="-196" type="line"/>
      <point x="1252" y="870" type="line"/>
    </contour>
    <contour>
      <point x="351" y="190" type="curve"/>
      <point x="299" y="21" type="line"/>
      <point x="299" y="21"/>
      <point x="443" y="-14"/>
      <point x="548" y="-14" type="curve" smooth="yes"/>
      <point x="817" y="-14"/>
      <point x="879" y="247"/>
      <point x="879" y="447" type="curve" smooth="yes"/>
      <point x="879" y="619"/>
      <point x="791" y="690"/>
      <point x="645" y="690" type="curve" smooth="yes"/>
      <point x="441" y="690"/>
      <point x="358" y="559"/>
      <point x="358" y="408" type="curve" smooth="yes"/>
      <point x="358" y="284"/>
      <point x="419" y="240"/>
      <point x="510" y="240" type="curve" smooth="yes"/>
      <point x="586" y="240"/>
      <point x="628" y="265"/>
      <point x="628" y="265" type="curve"/>
      <point x="631" y="213"/>
      <point x="609" y="173"/>
      <point x="533" y="173" type="curve" smooth="yes"/>
      <point x="470" y="173"/>
      <point x="351" y="190"/>
    </contour>
    <contour>
      <point x="571" y="446" type="curve" smooth="yes"/>
      <point x="571" y="478"/>
      <point x="586" y="508"/>
      <point x="624" y="508" type="curve" smooth="yes"/>
      <point x="652" y="508"/>
      <point x="672" y="493"/>
      <point x="672" y="467" type="curve" smooth="yes"/>
      <point x="672" y="454"/>
      <point x="672" y="440"/>
      <point x="667" y="424" type="curve"/>
      <point x="667" y="424"/>
      <point x="641" y="403"/>
      <point x="606" y="403" type="curve" smooth="yes"/>
      <point x="583" y="403"/>
      <point x="571" y="419"/>
    </contour>
  </outline>
</glyph>
<glyph name="nine.tosf" format="2">
  <advance width="560"/>
  <note>
nine.pnum
</note>
  <outline>
    <contour>
      <point x="64" y="150" type="curve"/>
      <point x="21" y="6" type="line"/>
      <point x="21" y="6"/>
      <point x="115" y="-14"/>
      <point x="202" y="-14" type="curve" smooth="yes"/>
      <point x="460" y="-14"/>
      <point x="515" y="156"/>
      <point x="515" y="328" type="curve" smooth="yes"/>
      <point x="515" y="474"/>
      <point x="426" y="536"/>
      <point x="302" y="536" type="curve" smooth="yes"/>
      <point x="152" y="536"/>
      <point x="58" y="446"/>
      <point x="58" y="324" type="curve" smooth="yes"/>
      <point x="58" y="218"/>
      <point x="128" y="179"/>
      <point x="222" y="179" type="curve" smooth="yes"/>
      <point x="254" y="179"/>
      <point x="300" y="189"/>
      <point x="325" y="200" type="curve"/>
      <point x="318" y="165"/>
      <point x="306" y="133"/>
      <point x="222" y="133" type="curve" smooth="yes"/>
      <point x="161" y="133"/>
      <point x="64" y="150"/>
    </contour>
    <contour>
      <point x="231" y="337" type="curve" smooth="yes"/>
      <point x="231" y="370"/>
      <point x="253" y="388"/>
      <point x="293" y="388" type="curve" smooth="yes"/>
      <point x="343" y="388"/>
      <point x="356" y="360"/>
      <point x="349" y="327" type="curve"/>
      <point x="349" y="327"/>
      <point x="319" y="302"/>
      <point x="273" y="302" type="curve" smooth="yes"/>
      <point x="249" y="302"/>
      <point x="231" y="312"/>
    </contour>
  </outline>
</glyph>
<glyph name="one.osf" format="2">
  <advance width="347"/>
  <note>
one.pnum
</note>
  <outline>
    <contour>
      <point x="367" y="520" type="line"/>
      <point x="232" y="520" type="line"/>
      <point x="29" y="410" type="line"/>
      <point x="60" y="283" type="line"/>
      <point x="163" y="332" type="line"/>
      <point x="92" y="0" type="line"/>
      <point x="256" y="0" type="line"/>
    </contour>
  </outline>
</glyph>
<glyph name="one.ss05" format="2">
  <advance width="1183"/>
  <note>
one.ss05
</note>
  <outline>
    <contour>
      <point x="-80" y="-230" type="line"/>
      <point x="162" y="904" type="line"/>
      <point x="1296" y="904" type="line"/>
      <point x="1054" y="-230" type="line"/>
    </contour>
    <contour>
      <point x="190" y="870" type="line"/>
      <point x="-36" y="-196" type="line"/>
      <point x="1026" y="-196" type="line"/>
      <point x="1252" y="870" type="line"/>
    </contour>
    <contour>
      <point x="635" y="673" type="line"/>
      <point x="381" y="547" type="line"/>
      <point x="439" y="387" type="line"/>
      <point x="548" y="435" type="line"/>
      <point x="455" y="0" type="line"/>
      <point x="680" y="0" type="line"/>
      <point x="824" y="673" type="line"/>
    </contour>
  </outline>
</glyph>
<glyph name="one.tf" format="2">
  <advance width="560"/>
  <note>
one.tf
</note>
  <outline>
    <contour>
      <point x="238" y="435" type="line"/>
      <point x="144" y="0" type="line"/>
      <point x="370" y="0" type="line"/>
      <point x="514" y="673" type="line"/>
      <point x="323" y="673" type="line"/>
      <point x="71" y="547" type="line"/>
      <point x="129" y="387" type="line"/>
    </contour>
  </outline>
</glyph>
<glyph name="one.tosf" format="2">
  <advance width="560"/>
  <note>
one.pnum
</note>
  <outline>
    <contour>
      <point x="457" y="520" type="line"/>
      <point x="322" y="520" type="line"/>
      <point x="119" y="410" type="line"/>
      <point x="150" y="283" type="line"/>
      <point x="253" y="332" type="line"/>
      <point x="182" y="0" type="line"/>
      <point x="346" y="0" type="line"/>
    </contour>
  </outline>
</glyph>
<glyph name="seven.osf" format="2">
  <advance width="421"/>
  <note>
seven.pnum
</note>
  <outline>
    <contour>
      <point x="459" y="520" type="line"/>
      <point x="72" y="520" type="line"/>
      <point x="37" y="355" type="line"/>
      <point x="230" y="355" type="line"/>
      <point x="226" y="335" type="line"/>
      <point x="-4" y="42" type="line"/>
      <point x="138" y="-22" type="line"/>
      <point x="425" y="362" type="line"/>
    </contour>
  </outline>
</glyph>
<glyph name="seven.ss03" format="2">
  <advance width="1266"/>
  <note>
seven.ss03
</note>
  <outline>
    <contour>
      <point x="524" y="-271" type="curve" smooth="yes"/>
      <point x="946" y="-271"/>
      <point x="1270" y="85"/>
      <point x="1270" y="459" type="curve" smooth="yes"/>
      <point x="1270" y="747"/>
      <point x="1076" y="938"/>
      <point x="771" y="938" type="curve" smooth="yes"/>
      <point x="345" y="938"/>
      <point x="28" y="580"/>
      <point x="28" y="207" type="curve" smooth="yes"/>
      <point x="28" y="-86"/>
      <point x="225" y="-271"/>
    </contour>
    <contour>
      <point x="70" y="211" type="curve" smooth="yes"/>
      <point x="70" y="567"/>
      <point x="379" y="900"/>
      <point x="769" y="900" type="curve" smooth="yes"/>
      <point x="1049" y="900"/>
      <point x="1228" y="731"/>
      <point x="1228" y="455" type="curve" smooth="yes"/>
      <point x="1228" y="100"/>
      <point x="915" y="-233"/>
      <point x="525" y="-233" type="curve" smooth="yes"/>
      <point x="245" y="-233"/>
      <point x="70" y="-64"/>
    </contour>
    <contour>
      <point x="669" y="443" type="line"/>
      <point x="438" y="78" type="line"/>
      <point x="606" y="-18" type="line"/>
      <point x="905" y="457" type="line"/>
      <point x="951" y="673" type="line"/>
      <point x="499" y="673" type="line"/>
      <point x="455" y="469" type="line"/>
      <point x="674" y="469" type="line"/>
    </contour>
  </outline>
</glyph>
<glyph name="seven.ss05" format="2">
  <advance width="1183"/>
  <note>
seven.ss05
</note>
  <outline>
    <contour>
      <point x="-80" y="-230" type="line"/>
      <point x="162" y="904" type="line"/>
      <point x="1296" y="904" type="line"/>
      <point x="1054" y="-230" type="line"/>
    </contour>
    <contour>
      <point x="190" y="870" type="line"/>
      <point x="-36" y="-196" type="line"/>
      <point x="1026" y="-196" type="line"/>
      <point x="1252" y="870" type="line"/>
    </contour>
    <contour>
      <point x="627" y="443" type="line"/>
      <point x="396" y="78" type="line"/>
      <point x="564" y="-18" type="line"/>
      <point x="863" y="457" type="line"/>
      <point x="909" y="673" type="line"/>
      <point x="457" y="673" type="line"/>
      <point x="413" y="469" type="line"/>
      <point x="632" y="469" type="line"/>
    </contour>
  </outline>
</glyph>
<glyph name="seven.tosf" format="2">
  <advance width="560"/>
  <note>
seven.pnum
</note>
  <outline>
    <contour>
      <point x="539" y="520" type="line"/>
      <point x="152" y="520" type="line"/>
      <point x="117" y="355" type="line"/>
      <point x="310" y="355" type="line"/>
      <point x="306" y="335" type="line"/>
      <point x="76" y="42" type="line"/>
      <point x="218" y="-22" type="line"/>
      <point x="505" y="362" type="line"/>
    </contour>
  </outline>
</glyph>
<glyph name="six.ss05" format="2">
  <advance width="1183"/>
  <note>
six.ss05
</note>
  <outline>
    <contour>
      <point x="-80" y="-230" type="line"/>
      <point x="162" y="904" type="line"/>
      <point x="1296" y="904" type="line"/>
      <point x="1054" y="-230" type="line"/>
    </contour>
    <contour>
      <point x="190" y="870" type="line"/>
      <point x="-36" y="-196" type="line"/>
      <point x="1026" y="-196" type="line"/>
      <point x="1252" y="870" type="line"/>
    </contour>
    <contour>
      <point x="331" y="229" type="curve" smooth="yes"/>
      <point x="331" y="57"/>
      <point x="419" y="-14"/>
      <point x="565" y="-14" type="curve" smooth="yes"/>
      <point x="769" y="-14"/>
      <point x="852" y="122"/>
      <point x="852" y="273" type="curve" smooth="yes"/>
      <point x="852" y="397"/>
      <point x="791" y="440"/>
      <point x="700" y="440" type="curve" smooth="yes"/>
      <point x="612" y="440"/>
      <point x="572" y="401"/>
      <point x="572" y="401" type="curve"/>
      <point x="599" y="471"/>
      <point x="619" y="503"/>
      <point x="695" y="503" type="curve" smooth="yes"/>
      <point x="758" y="503"/>
      <point x="866" y="486"/>
      <point x="866" y="486" type="curve"/>
      <point x="918" y="655" type="line"/>
      <point x="918" y="655"/>
      <point x="785" y="690"/>
      <point x="680" y="690" type="curve" smooth="yes"/>
      <point x="401" y="690"/>
      <point x="331" y="389"/>
    </contour>
    <contour>
      <point x="538" y="209" type="curve" smooth="yes"/>
      <point x="538" y="222"/>
      <point x="538" y="235"/>
      <point x="543" y="253" type="curve"/>
      <point x="543" y="253"/>
      <point x="569" y="273"/>
      <point x="604" y="273" type="curve" smooth="yes"/>
      <point x="627" y="273"/>
      <point x="639" y="259"/>
      <point x="639" y="232" type="curve" smooth="yes"/>
      <point x="639" y="200"/>
      <point x="626" y="168"/>
      <point x="585" y="168" type="curve" smooth="yes"/>
      <point x="557" y="168"/>
      <point x="538" y="183"/>
    </contour>
  </outline>
</glyph>
<glyph name="six.tosf" format="2">
  <advance width="560"/>
  <note>
six.pnum
</note>
  <outline>
    <contour>
      <point x="502" y="372" type="curve"/>
      <point x="545" y="516" type="line"/>
      <point x="545" y="516"/>
      <point x="451" y="536"/>
      <point x="364" y="536" type="curve" smooth="yes"/>
      <point x="118" y="536"/>
      <point x="51" y="369"/>
      <point x="51" y="194" type="curve" smooth="yes"/>
      <point x="51" y="48"/>
      <point x="140" y="-14"/>
      <point x="264" y="-14" type="curve" smooth="yes"/>
      <point x="414" y="-14"/>
      <point x="508" y="76"/>
      <point x="508" y="198" type="curve" smooth="yes"/>
      <point x="508" y="304"/>
      <point x="438" y="343"/>
      <point x="344" y="343" type="curve" smooth="yes"/>
      <point x="312" y="343"/>
      <point x="266" y="333"/>
      <point x="241" y="322" type="curve"/>
      <point x="248" y="357"/>
      <point x="260" y="389"/>
      <point x="344" y="389" type="curve" smooth="yes"/>
      <point x="405" y="389"/>
      <point x="502" y="372"/>
    </contour>
    <contour>
      <point x="217" y="195" type="curve"/>
      <point x="217" y="195"/>
      <point x="247" y="220"/>
      <point x="293" y="220" type="curve" smooth="yes"/>
      <point x="317" y="220"/>
      <point x="335" y="210"/>
      <point x="335" y="185" type="curve" smooth="yes"/>
      <point x="335" y="152"/>
      <point x="313" y="134"/>
      <point x="273" y="134" type="curve" smooth="yes"/>
      <point x="223" y="134"/>
      <point x="210" y="162"/>
    </contour>
  </outline>
</glyph>
<glyph name="three.tosf" format="2">
  <advance width="560"/>
  <note>
three.pnum
</note>
  <outline>
    <contour>
      <point x="131" y="513" type="curve"/>
      <point x="114" y="363" type="line"/>
      <point x="114" y="363"/>
      <point x="240" y="377"/>
      <point x="309" y="377" type="curve" smooth="yes"/>
      <point x="330" y="377"/>
      <point x="338" y="372"/>
      <point x="338" y="359" type="curve" smooth="yes"/>
      <point x="338" y="342"/>
      <point x="326" y="334"/>
      <point x="298" y="334" type="curve" smooth="yes"/>
      <point x="170" y="334" type="line"/>
      <point x="141" y="196" type="line"/>
      <point x="282" y="196" type="line" smooth="yes"/>
      <point x="304" y="196"/>
      <point x="313" y="193"/>
      <point x="313" y="178" type="curve" smooth="yes"/>
      <point x="313" y="160"/>
      <point x="304" y="148"/>
      <point x="240" y="148" type="curve" smooth="yes"/>
      <point x="163" y="148"/>
      <point x="66" y="162"/>
      <point x="66" y="162" type="curve"/>
      <point x="14" y="13" type="line"/>
      <point x="14" y="13"/>
      <point x="130" y="-14"/>
      <point x="228" y="-14" type="curve" smooth="yes"/>
      <point x="387" y="-14"/>
      <point x="481" y="52"/>
      <point x="481" y="168" type="curve" smooth="yes"/>
      <point x="481" y="229"/>
      <point x="455" y="261"/>
      <point x="412" y="275" type="curve"/>
      <point x="476" y="296"/>
      <point x="510" y="351"/>
      <point x="510" y="409" type="curve" smooth="yes"/>
      <point x="510" y="485"/>
      <point x="450" y="535"/>
      <point x="335" y="535" type="curve" smooth="yes"/>
      <point x="246" y="535"/>
      <point x="131" y="513"/>
    </contour>
  </outline>
</glyph>
<glyph name="two.ss03" format="2">
  <advance width="1266"/>
  <note>
two.ss03
</note>
  <outline>
    <contour>
      <point x="524" y="-271" type="curve" smooth="yes"/>
      <point x="946" y="-271"/>
      <point x="1270" y="85"/>
      <point x="1270" y="459" type="curve" smooth="yes"/>
      <point x="1270" y="747"/>
      <point x="1076" y="938"/>
      <point x="771" y="938" type="curve" smooth="yes"/>
      <point x="345" y="938"/>
      <point x="28" y="580"/>
      <point x="28" y="207" type="curve" smooth="yes"/>
      <point x="28" y="-86"/>
      <point x="225" y="-271"/>
    </contour>
    <contour>
      <point x="70" y="211" type="curve" smooth="yes"/>
      <point x="70" y="567"/>
      <point x="379" y="900"/>
      <point x="769" y="900" type="curve" smooth="yes"/>
      <point x="1049" y="900"/>
      <point x="1228" y="731"/>
      <point x="1228" y="455" type="curve" smooth="yes"/>
      <point x="1228" y="100"/>
      <point x="915" y="-233"/>
      <point x="525" y="-233" type="curve" smooth="yes"/>
      <point x="245" y="-233"/>
      <point x="70" y="-64"/>
    </contour>
    <contour>
      <point x="386" y="175" type="line"/>
      <point x="349" y="0" type="line"/>
      <point x="816" y="0" type="line"/>
      <point x="856" y="184" type="line"/>
      <point x="641" y="184" type="line"/>
      <point x="719" y="238" type="line" smooth="yes"/>
      <point x="866" y="340"/>
      <point x="919" y="417"/>
      <point x="919" y="530" type="curve" smooth="yes"/>
      <point x="919" y="637"/>
      <point x="843" y="690"/>
      <point x="719" y="690" type="curve" smooth="yes"/>
      <point x="601" y="690"/>
      <point x="490" y="653"/>
      <point x="490" y="653" type="curve"/>
      <point x="463" y="478" type="line"/>
      <point x="463" y="478"/>
      <point x="545" y="494"/>
      <point x="602" y="494" type="curve" smooth="yes"/>
      <point x="661" y="494"/>
      <point x="676" y="478"/>
      <point x="676" y="458" type="curve" smooth="yes"/>
      <point x="676" y="409"/>
      <point x="609" y="364"/>
      <point x="491" y="264" type="curve" smooth="yes"/>
    </contour>
  </outline>
</glyph>
<glyph name="two.tosf" format="2">
  <advance width="560"/>
  <note>
two.pnum
</note>
  <outline>
    <contour>
      <point x="264" y="292" type="curve" smooth="yes"/>
      <point x="52" y="140" type="line"/>
      <point x="22" y="0" type="line"/>
      <point x="439" y="0" type="line"/>
      <point x="473" y="159" type="line"/>
      <point x="292" y="157" type="line"/>
      <point x="390" y="216" type="line" smooth="yes"/>
      <point x="462" y="259"/>
      <point x="519" y="307"/>
      <point x="519" y="394" type="curve" smooth="yes"/>
      <point x="519" y="497"/>
      <point x="442" y="535"/>
      <point x="343" y="535" type="curve" smooth="yes"/>
      <point x="305" y="535"/>
      <point x="256" y="530"/>
      <point x="130" y="511" type="curve"/>
      <point x="106" y="358" type="line"/>
      <point x="106" y="358"/>
      <point x="206" y="371"/>
      <point x="264" y="371" type="curve" smooth="yes"/>
      <point x="296" y="371"/>
      <point x="314" y="367"/>
      <point x="314" y="351" type="curve" smooth="yes"/>
      <point x="314" y="335"/>
      <point x="302" y="320"/>
    </contour>
  </outline>
</glyph>
<glyph name="uni0302.case" format="2">
  <advance width="0"/>
  <note>
uni0302.case
</note>
  <outline>
    <contour>
      <point x="106" y="757" type="line"/>
      <point x="278" y="757" type="line"/>
      <point x="327" y="840" type="line"/>
      <point x="340" y="757" type="line"/>
      <point x="492" y="757" type="line"/>
      <point x="449" y="937" type="line"/>
      <point x="225" y="937" type="line"/>
    </contour>
  </outline>
</glyph>
<glyph name="uni0304.case" format="2">
  <advance width="0"/>
  <note>
uni0304.case
</note>
  <outline>
    <contour>
      <point x="435" y="766" type="line"/>
      <point x="463" y="896" type="line"/>
      <point x="136" y="896" type="line"/>
      <point x="108" y="766" type="line"/>
    </contour>
  </outline>
</glyph>
<glyph name="uni0307.case" format="2">
  <advance width="0"/>
  <note>
uni0307.case
</note>
  <outline>
    <contour>
      <point x="360" y="757" type="line"/>
      <point x="392" y="911" type="line"/>
      <point x="188" y="911" type="line"/>
      <point x="156" y="757" type="line"/>
    </contour>
  </outline>
</glyph>
<glyph name="uni0307.i" format="2">
  <advance width="0"/>
  <note>
uni0307.i
</note>
  <outline>
    <contour>
      <point x="286" y="566" type="line"/>
      <point x="321" y="730" type="line"/>
      <point x="100" y="730" type="line"/>
      <point x="65" y="566" type="line"/>
    </contour>
  </outline>
</glyph>
<glyph name="uni030B.case" format="2">
  <advance width="0"/>
  <note>
uni030B.case
</note>
  <outline>
    <contour>
      <point x="400" y="899" type="line"/>
      <point x="322" y="1029" type="line"/>
      <point x="126" y="853" type="line"/>
      <point x="198" y="751" type="line"/>
    </contour>
    <contour>
      <point x="582" y="1029" type="line"/>
      <point x="386" y="853" type="line"/>
      <point x="458" y="751" type="line"/>
      <point x="660" y="899" type="line"/>
    </contour>
  </outline>
</glyph>
<glyph name="uni0312.case" format="2">
  <advance width="0"/>
  <note>
uni0312.case
</note>
  <outline>
    <contour>
      <point x="288" y="954" type="line"/>
      <point x="117" y="812" type="line"/>
      <point x="219" y="728" type="line"/>
      <point x="369" y="885" type="line"/>
    </contour>
  </outline>
</glyph>
<glyph name="uni0313.case" format="2">
  <advance width="0"/>
  <note>
uni0313.case
</note>
  <outline>
    <contour>
      <point x="210" y="728" type="line"/>
      <point x="351" y="870" type="line"/>
      <point x="231" y="954" type="line"/>
      <point x="114" y="797" type="line"/>
    </contour>
  </outline>
</glyph>
<glyph name="uni0335.case" format="2">
  <advance width="0"/>
  <note>
uni0335.case
</note>
  <outline>
    <contour>
      <point x="341" y="268" type="line"/>
      <point x="373" y="422" type="line"/>
      <point x="16" y="422" type="line"/>
      <point x="-16" y="268" type="line"/>
    </contour>
  </outline>
</glyph>
<glyph name="uni1E37.ss02" format="2">
  <advance width="279"/>
  <note>
uni1E37.ss02
</note>
  <outline>
    <contour>
      <point x="130" y="730" type="line"/>
      <point x="-24" y="0" type="line"/>
      <point x="193" y="0" type="line"/>
      <point x="347" y="730" type="line"/>
    </contour>
    <contour>
      <point x="-27" y="-64" type="line"/>
      <point x="-59" y="-218" type="line"/>
      <point x="145" y="-218" type="line"/>
      <point x="177" y="-64" type="line"/>
    </contour>
  </outline>
</glyph>
<glyph name="zero.ss06" format="2">
  <advance width="1183"/>
  <note>
zero.ss06
</note>
  <outline>
    <contour>
      <point x="-80" y="-230" type="line"/>
      <point x="162" y="904" type="line"/>
      <point x="1296" y="904" type="line"/>
      <point x="1054" y="-230" type="line"/>
    </contour>
    <contour>
      <point x="328" y="200" type="curve" smooth="yes"/>
      <point x="328" y="48"/>
      <point x="414" y="-14"/>
      <point x="558" y="-14" type="curve" smooth="yes"/>
      <point x="803" y="-14"/>
      <point x="889" y="273"/>
      <point x="889" y="471" type="curve" smooth="yes"/>
      <point x="889" y="635"/>
      <point x="792" y="690"/>
      <point x="662" y="690" type="curve" smooth="yes"/>
      <point x="411" y="690"/>
      <point x="328" y="403"/>
    </contour>
    <contour>
      <point x="552" y="207" type="curve" smooth="yes"/>
      <point x="552" y="247"/>
      <point x="588" y="500"/>
      <point x="643" y="500" type="curve" smooth="yes"/>
      <point x="654" y="500"/>
      <point x="665" y="496"/>
      <point x="665" y="470" type="curve" smooth="yes"/>
      <point x="665" y="424"/>
      <point x="629" y="176"/>
      <point x="573" y="176" type="curve" smooth="yes"/>
      <point x="561" y="176"/>
      <point x="552" y="182"/>
    </contour>
  </outline>
</glyph>
<glyph name="zero.tosf" format="2">
  <advance width="560"/>
  <note>
zero.pnum
</note>
  <outline>
    <contour>
      <point x="327" y="535" type="curve" smooth="yes"/>
      <point x="104" y="535"/>
      <point x="34" y="335"/>
      <point x="34" y="162" type="curve" smooth="yes"/>
      <point x="34" y="51"/>
      <point x="100" y="-13"/>
      <point x="231" y="-13" type="curve" smooth="yes"/>
      <point x="426" y="-13"/>
      <point x="523" y="129"/>
      <point x="523" y="353" type="curve" smooth="yes"/>
      <point x="523" y="465"/>
      <point x="452" y="535"/>
    </contour>
    <contour>
      <point x="202" y="196" type="curve" smooth="yes"/>
      <point x="202" y="249"/>
      <point x="232" y="378"/>
      <point x="304" y="378" type="curve" smooth="yes"/>
      <point x="336" y="378"/>
      <point x="354" y="365"/>
      <point x="354" y="321" type="curve" smooth="yes"/>
      <point x="354" y="267"/>
      <point x="331" y="143"/>
      <point x="254" y="143" type="curve" smooth="yes"/>
      <point x="221" y="143"/>
      <point x="202" y="153"/>
    </contour>
  </outline>
</glyph>
